<svg xmlns="http://www.w3.org/2000/svg" viewBox="0 0 272.29 62.47"><defs><style>.a{fill:#efba0f;}.b{fill:#efb90e;}.c{fill:#efb90f;}.d{fill:#efb90d;}.e{fill:#efba10;}.f{fill:#efba12;}.g{fill:#f0bb16;}.h{fill:#f0bb13;}.i{fill:#efba11;}.j{fill:#f0bc18;}</style></defs><path class="a" d="M100,16.37c.28.15.55.33.85.47a6.37,6.37,0,0,1,3.85,6.52,6.58,6.58,0,0,1-4.56,6.23,14.54,14.54,0,0,1-5.29.94c-4,0-8.07,0-12.1,0-1,0-1.25-.35-1.25-1.3q.06-12.35,0-24.69c0-.87.16-1.25,1.15-1.24,4,.06,8.07,0,12.1,0a11.23,11.23,0,0,1,3.89.73,6.33,6.33,0,0,1,4.44,5.09,6.31,6.31,0,0,1-2.5,6.52,5.8,5.8,0,0,0-.52.47S100,16.27,100,16.37Zm-7.93,8.87c1.42-.1,3.15.26,4.81-.35a2.46,2.46,0,0,0,1.78-2.17A2.54,2.54,0,0,0,97.5,20a5,5,0,0,0-2.58-.7c-2.18,0-4.36,0-6.54,0-.77,0-1,.29-1,1,0,1.32,0,2.65,0,4,0,.72.2,1,1,1C89.52,25.2,90.66,25.24,92.07,25.24ZM91,8.55c-3.6,0-3.6,0-3.6,3.63,0,.47,0,1,0,1.42s.2.78.75.76a45.15,45.15,0,0,0,6.37-.18c1.78-.31,2.66-1.26,2.64-2.78s-1-2.43-2.77-2.65C93.3,8.61,92.16,8.61,91,8.55Z"/><path class="b" d="M131.22,14V27.87c0,2.68,0,2.68-2.7,2.68-3.31,0-3.31,0-3.31-3.34,0-7.42,0-14.84,0-22.26,0-1.17.23-1.52,1.52-1.65a6.3,6.3,0,0,1,6.55,3.15c2.9,4.3,6.25,8.31,9.42,12.44.19.25.41.49.68.82a2.49,2.49,0,0,0,.18-1.44c0-4.49.05-9,0-13.47,0-1.21.36-1.56,1.52-1.46a21,21,0,0,0,3.27,0c.9-.06,1.24.2,1.23,1.16q0,12.42,0,24.82c0,.89-.23,1.14-1.17,1.26-2.81.36-4.68-.54-6.34-3-2.94-4.34-6.31-8.39-9.51-12.56-.31-.4-.64-.78-.95-1.17Z"/><path class="c" d="M193.18,13.73a2.58,2.58,0,0,0-.27,1.68c0,4.59,0,9.17,0,13.76,0,1.16-.36,1.48-1.45,1.39a17.22,17.22,0,0,0-3.13,0c-1.2.12-1.4-.41-1.39-1.47q0-12.2,0-24.39c0-1,.26-1.26,1.32-1.4,3.11-.41,5.11.68,6.89,3.32,3,4.5,6.53,8.69,9.84,13,.54-.27.3-.7.3-1,0-4.54.08-9.09,0-13.62,0-1.43.42-1.81,1.75-1.67a22.3,22.3,0,0,0,3.27,0c.76,0,1,.27,1,1q0,12.56,0,25.11c0,.9-.34,1.2-1.17,1.1a.33.33,0,0,0-.14,0c-2.71.47-4.5-.51-6.11-2.85-3-4.4-6.44-8.54-9.69-12.78C193.88,14.55,193.57,14.2,193.18,13.73Z"/><path class="c" d="M45.48,26.79c-.34-.32-.66-.6-1-.89-3.33-3.31-6.68-6.59-10-9.95-.85-.88-1.3-.8-2.1,0-3.32,3.39-6.72,6.68-10,10.06-.7.71-1.11.73-1.8,0-1.77-1.85-3.59-3.64-5.44-5.42-.57-.55-.59-.89,0-1.46Q24,10.42,32.81,1.61c.59-.6.93-.51,1.48,0Q43.07,10.44,51.9,19.2c.41.4.71.7.14,1.25-2,1.95-4,3.94-6,5.9A5.52,5.52,0,0,1,45.48,26.79Z"/><path class="d" d="M52.45,43.8c-.24.28-.44.55-.67.78Q43,53.3,34.28,62c-.55.55-.9.61-1.48,0Q24,53.26,15.18,44.52c-.58-.58-.55-.92,0-1.47,1.87-1.81,3.73-3.64,5.53-5.51.61-.64.95-.62,1.57,0C25.69,41,29.15,44.35,32.53,47.8c.79.81,1.22.8,2,0,3.31-3.39,6.71-6.68,10-10.06.7-.72,1.13-.86,1.89,0,1.68,1.79,3.48,3.49,5.22,5.23C51.94,43.19,52.18,43.49,52.45,43.8Z"/><path class="e" d="M247,16.93c0-4.07,0-8.14,0-12.2,0-1,.18-1.4,1.31-1.39,6,.05,12.05,0,18.07,0,.93,0,1.28.25,1.21,1.19a18.53,18.53,0,0,0,0,3c.09,1-.36,1.25-1.31,1.24-4,0-8,0-12,0-1.08,0-1.42.31-1.33,1.36a15.85,15.85,0,0,1,0,2.84c-.08,1,.24,1.31,1.26,1.29,3.41-.06,6.83,0,10.24,0,1.06,0,1.49.26,1.35,1.34-.16,1.3.57,3-.3,3.81s-2.45.21-3.72.22c-2.56,0-5.12,0-7.68,0-.85,0-1.2.21-1.15,1.1a25.87,25.87,0,0,1,0,3.41c-.06.95.32,1.2,1.23,1.19,4.08,0,8.16,0,12.24,0,1.06,0,1.48.25,1.34,1.33-.17,1.3.57,3-.31,3.81s-2.45.21-3.72.22c-5.12,0-10.24,0-15.37,0-1.16,0-1.42-.35-1.41-1.45C247,25.07,247,21,247,16.93Z"/><path class="a" d="M179.39,30.55c-3,0-3,0-4.18-2.85-1.33-3.28-1.33-3.28-4.88-3.28-2.23,0-4.46.06-6.68,0a1.54,1.54,0,0,0-1.75,1.22c-.47,1.34-1.08,2.62-1.58,3.95a1.28,1.28,0,0,1-1.46,1,35.13,35.13,0,0,0-3.7,0c-1.14.08-1.41-.15-.9-1.29,1.64-3.67,3.17-7.39,4.75-11.08,2-4.57,3.94-9.12,5.84-13.71a1.81,1.81,0,0,1,2-1.35c4.2.05,4.19,0,5.83,3.87q4.7,11,9.42,22.05c.63,1.49.64,1.49-1,1.5ZM168.14,10.4c-1.21,2.95-2.26,5.51-3.33,8.07-.21.51-.05.71.47.71,1.89,0,3.79,0,5.68,0,.67,0,.7-.28.48-.79C170.39,15.87,169.35,13.34,168.14,10.4Z"/><path class="c" d="M231.55,31c-9,0-15-6.42-14.51-15.17.41-7.8,7.53-13.65,15.61-12.86a14.79,14.79,0,0,1,8.45,3.32c.77.66.85,1.15.08,1.79a2.92,2.92,0,0,0-.28.32c-.85,1-1.53,2.35-2.59,2.74s-2-1.13-3-1.67A8.06,8.06,0,0,0,225.2,11.3a9.26,9.26,0,0,0,.05,11.32,8,8,0,0,0,10.06,1.85,9.7,9.7,0,0,0,1-.58c2.21-1.47,2.2-1.47,4.13.46s1.91,1.91-.16,3.59A13.26,13.26,0,0,1,231.55,31Z"/><path class="f" d="M101.61,44.62a2.4,2.4,0,0,0-.31,1.63c0,3-.09,6,0,9.07,0,1.43-.43,1.74-1.76,1.7-1.14,0-1.54-.26-1.52-1.49.07-5.1,0-10.21,0-15.31,0-1,.19-1.35,1.3-1.42a3.18,3.18,0,0,1,3.39,1.84c1.05,1.9,2.4,3.63,3.49,5.51.7,1.19,1,.91,1.64,0,1.33-2.18,2.75-4.3,4.15-6.44.43-.68,3.14-1.18,3.73-.71.31.25.21.61.21.93,0,5.34,0,10.68,0,16,0,1.4-.86,1.08-1.6,1.06s-1.66.39-1.63-1c.07-3.31,0-6.62,0-9.92a2.44,2.44,0,0,0-.25-1.58L107,52.59Z"/><path class="g" d="M117.3,17c0,4.06,0,8.12,0,12.18,0,1-.19,1.47-1.31,1.39a35,35,0,0,0-3.83,0c-.76,0-1-.26-1-1q0-12.6,0-25.21c0-.84.33-1,1.1-1,1.28,0,2.56.07,3.83,0,1-.06,1.21.3,1.2,1.21C117.28,8.7,117.3,12.86,117.3,17Z"/><path class="f" d="M264.5,50.81v-3c0-2.65.06-5.29,0-7.94-.05-1.39.85-1.06,1.59-1.06s1.62-.33,1.6,1.06c-.06,5.1,0,10.21,0,15.31,0,.57.44,1.54-.46,1.68s-2,.42-2.83-.67c-2.65-3.52-5.38-7-8.09-10.43a3.38,3.38,0,0,0-1.31-1.14V55c0,2-.65,2.49-2.62,2-.51-.12-.54-.43-.54-.82q0-8.22,0-16.44c0-.57.14-.85.78-.88a3.38,3.38,0,0,1,3.39,1.41c2.36,3.3,4.95,6.45,7.45,9.65A1.75,1.75,0,0,0,264.5,50.81Z"/><path class="h" d="M156.46,56.86l-.56.11c-2.24.39-4-.24-4.94-2.43-.28-.64-.9-1.13-1.19-1.76-.88-2-2.44-2.35-4.39-2.14-.77.09-1.1.26-1.07,1.07,0,1.37,0,2.74,0,4.11,0,.82-.19,1.2-1.11,1.17-2.65-.06-2.15.15-2.16-2.06,0-4.91,0-9.83,0-14.74,0-1,.25-1.4,1.34-1.36,2.56.08,5.12,0,7.68.07,4,.18,6.36,3,5.79,6.76a4.94,4.94,0,0,1-3.18,4c-.92.38-.87.71-.35,1.4C153.69,52.94,155,54.83,156.46,56.86ZM144.25,44.77V47c0,.41.08.8.59.79,1.93,0,3.88.29,5.77-.28a2.81,2.81,0,0,0,2-2.88,2.75,2.75,0,0,0-2.27-2.7,11.46,11.46,0,0,0-3.09-.2C144.25,41.74,144.25,41.75,144.25,44.77Z"/><path class="f" d="M218.47,47.94c0,2.6-.09,5.2,0,7.79.08,1.54-.87,1.2-1.72,1.25s-1.62,0-1.53-1.3c.13-1.74,0-3.5.05-5.24,0-.74-.13-1.13-1-1.11-2.23.05-4.46,0-6.68,0-.77,0-1,.31-1,1,0,1.84,0,3.69,0,5.53.06,1.49-1,1.08-1.73,1.09s-1.62.34-1.6-1.06c.06-5.33,0-10.67,0-16,0-.81.25-1.13,1-1a5.48,5.48,0,0,0,1.28,0c.75-.07,1,.25,1,1,0,1.8,0,3.59,0,5.39,0,.87.28,1.14,1.14,1.12,2.13,0,4.27,0,6.4,0,.89,0,1.14-.3,1.11-1.15-.05-1.74,0-3.49,0-5.24,0-.73.12-1.1,1-1.11,2.21,0,2.21-.09,2.21,2.16Z"/><path class="h" d="M238.47,57c-1.08.31-1.57-.36-2-1.42-1.18-3-1.22-3-4.4-3-1.42,0-2.84,0-4.26,0a1.37,1.37,0,0,0-1.57,1.07,14.55,14.55,0,0,0-.59,1.44c-.34,1.72-1.44,2-3,1.92-1.09-.06-1-.39-.68-1.16,1.45-3.24,2.86-6.48,4.29-9.73,1-2.16,2-4.3,2.82-6.49.37-1,1-1,1.79-.93s1.62-.17,2.09.94c2.21,5.21,4.53,10.38,6.8,15.57C240.53,57,240.52,57,238.47,57ZM231,42.61c-1,2.3-1.81,4.25-2.67,6.18-.31.69-.14.94.61.92,1.41,0,2.83,0,4.25,0,.71,0,.79-.3.53-.87Z"/><path class="h" d="M128.43,52.6h-.14c-3-.57-5,.35-5.62,3.55-.13.68-2.89,1.24-3.36.74-.25-.25,0-.53.08-.77,2.44-5.58,4.9-11.16,7.33-16.74.44-1,1.27-.61,2-.65s1.28-.18,1.65.68q3.63,8.39,7.34,16.73c.28.63.13.8-.54.85-2.43.19-2.4.19-3.36-2-1.28-2.89-.39-2.35-3.64-2.41Zm0-10c-1,2.32-1.85,4.3-2.71,6.27-.27.61-.09.87.58.86,1.42,0,2.83,0,4.25,0,.81,0,.86-.31.58-.95C130.31,46.84,129.47,44.9,128.47,42.59Z"/><path class="h" d="M87.94,38.59a9.86,9.86,0,0,1,5.15,1.72c.48.31,1,.69.32,1.17s-.52,2.16-2,1.36a10.53,10.53,0,0,0-3.27-1.31,4.33,4.33,0,0,0-2.52.21,2,2,0,0,0-1.36,1.81,1.87,1.87,0,0,0,1.1,1.83,10.87,10.87,0,0,0,2.55.89,17.3,17.3,0,0,1,3.76,1.25,5,5,0,0,1,.49,8.53c-2.93,2-9,1.25-11.42-1.35-.16-.16-.44-.34-.27-.57.37-.54.82-1,1.23-1.56.71-.9,1.16,0,1.62.29a7.68,7.68,0,0,0,5.52,1.38c1.17-.17,2.11-.7,2.26-2s-.72-1.9-1.76-2.25c-1.21-.41-2.46-.68-3.69-1-3.6-1.09-5.07-2.93-4.62-5.77S84,38.54,87.94,38.59Z"/><path class="h" d="M193.08,38.55a9.55,9.55,0,0,1,6.07,2.06c.65.51.9.93.17,1.54a2.44,2.44,0,0,0-.56.64c-.51.8-1,.9-1.77.24a6,6,0,0,0-4.61-1.5,5.83,5.83,0,0,0-5.29,4.62,6.69,6.69,0,0,0,2.52,7.17,6.28,6.28,0,0,0,7.2-.37c.65-.48,1.14-1.27,2.08-.21,1.3,1.46,1.38,1.39-.21,2.6a9.82,9.82,0,0,1-11.32.27A9.46,9.46,0,0,1,184,44.87,9.05,9.05,0,0,1,193.08,38.55Z"/><path class="i" d="M9.47,38.79c-.26-.25-.48-.43-.67-.62-1.88-1.87-3.74-3.76-5.64-5.59-.6-.58-.54-.93,0-1.48,1.9-1.84,3.77-3.7,5.62-5.6.51-.52.83-.57,1.37,0,1.87,1.93,3.8,3.82,5.72,5.71.44.43.6.75.07,1.27-2,1.94-4,3.92-5.94,5.89C9.87,38.5,9.68,38.63,9.47,38.79Z"/><path class="e" d="M57.53,38.73c-.26-.21-.49-.37-.68-.56C55,36.3,53.1,34.42,51.2,32.56c-.51-.49-.6-.84,0-1.37,1.94-1.88,3.85-3.78,5.73-5.72.56-.57.88-.45,1.37.05,1.86,1.89,3.73,3.77,5.64,5.61.6.57.55.92,0,1.47-1.88,1.8-3.71,3.65-5.57,5.48A8.94,8.94,0,0,1,57.53,38.73Z"/><path class="b" d="M33.57,25a8.76,8.76,0,0,1,.68.59c1.85,1.83,3.67,3.69,5.55,5.49.64.61.61,1,0,1.58-1.85,1.77-3.65,3.58-5.43,5.4-.56.58-.94.76-1.59.08-1.83-1.91-3.72-3.77-5.63-5.61-.53-.52-.54-.84,0-1.35,1.94-1.87,3.84-3.79,5.76-5.68A5.08,5.08,0,0,1,33.57,25Z"/><path class="j" d="M164.14,49.38c0-2.17,0-4.35,0-6.52,0-.74-.24-1-1-1-1.28,0-2.56,0-3.84,0s-.89-1-.91-1.59-.35-1.48.89-1.47q6.48.06,12.95,0c1.24,0,.93.83.9,1.46s.46,1.64-.9,1.59-2.47,0-3.7,0c-.89,0-1.12.3-1.11,1.15,0,4.21-.06,8.42.05,12.63,0,1.55-.82,1.32-1.77,1.36s-1.71,0-1.62-1.38C164.23,53.55,164.14,51.46,164.14,49.38Z"/><path class="e" d="M247,47.88c0,2.65-.06,5.3,0,7.95.05,1.31-.72,1.19-1.53,1.14s-1.74.42-1.72-1.09c.06-5.3.07-10.59,0-15.89,0-1.62,1-1,1.81-1.13.93-.12,1.49,0,1.44,1.23C246.89,42.68,247,45.28,247,47.88Z"/></svg>