<svg id="Layer_1" data-name="Layer 1" xmlns="http://www.w3.org/2000/svg" viewBox="0 0 280.72 79.93"><defs><style>.cls-1{fill:#fff;}</style></defs><path class="cls-1" d="M7.43,15.33a3,3,0,0,0,1.24.09c5.35.06,10.7-.14,16,.11a13.1,13.1,0,0,1,5,1.3,8.84,8.84,0,0,1,5.34,8.83c-.12,3.89-2.2,6.48-5.75,8l-.58.24-.51.21a24.42,24.42,0,0,1,2.66.79,9.37,9.37,0,0,1,5.87,9,10,10,0,0,1-6.19,9.57,22.79,22.79,0,0,1-9,1.65c-4.72,0-9.44,0-14.16,0Zm7.09,28c0,1.63,0,3.27,0,4.91,0,.67.2.8.83.79,1.88,0,3.77,0,5.66,0a15.26,15.26,0,0,0,4.76-.6c2.89-.92,4.14-2.82,3.93-6-.16-2.46-1.71-4-4.55-4.52-3.33-.6-6.7-.27-10-.37-.61,0-.57.35-.56.75Zm0-16.85c0,1.47,0,2.93,0,4.39,0,.46.07.7.62.69,2.51-.07,5,.13,7.54-.13,2.13-.22,4.07-.91,5-3.06,1.24-2.87-.34-5.74-3.6-6.5-3-.69-6.06-.32-9.09-.4-.58,0-.46.4-.46.73C14.51,23.61,14.52,25,14.52,26.46Z"/><path class="cls-1" d="M255.36,68a5.77,5.77,0,0,0-1.85-.62,17.85,17.85,0,0,1-5.39-2.92c-.44-.34-.51-.59-.14-1.07,1.1-1.4,2.16-2.83,3.16-4.29.41-.6.64-.49,1.1-.08a12.59,12.59,0,0,0,10.86,3.16,6.8,6.8,0,0,0,6.12-6.3,26.87,26.87,0,0,0,.18-4.32c-.1,0-.21,0-.26.08A12.87,12.87,0,0,1,248.49,48a15,15,0,0,1,1.26-15.31c3.34-4.94,10.8-6.67,16.13-3.94A12.41,12.41,0,0,1,269.75,32c0-1,0-2,0-3.06,0-.59.16-.79.77-.78,1.64,0,3.29,0,4.93,0,.53,0,.73.11.73.68,0,8.44,0,16.87-.07,25.3a16.6,16.6,0,0,1-1.26,6.21,12.1,12.1,0,0,1-8.06,7.33c-.3.09-.71,0-.91.37Zm-1.54-26.66a7.71,7.71,0,0,0,7.83,7.92,7.55,7.55,0,0,0,8.09-7.81,7.49,7.49,0,0,0-7.73-8A7.6,7.6,0,0,0,253.82,41.38Z"/><path class="cls-1" d="M124.81,32.12c3.33-6.4,14.3-6.06,16.79.15.19.06.2-.13.26-.22a10.46,10.46,0,0,1,13-3.7c3,1.33,4.3,3.84,4.92,6.85a21,21,0,0,1,.38,4.26c0,4.85,0,9.69,0,14.54,0,.89-.26,1.1-1.11,1.06-1.5-.07-3-.07-4.51,0-.89,0-1.19-.14-1.17-1.11.06-4.46,0-8.93,0-13.39,0-.83-.05-1.67-.13-2.5-.23-2.27-1.43-3.84-3.23-4.31a5.6,5.6,0,0,0-6.16,2,8.46,8.46,0,0,0-1.28,4.88c0,4.46,0,8.92,0,13.38,0,.85-.25,1-1.05,1-1.54-.06-3.08-.07-4.62,0-.85,0-1.11-.17-1.1-1.06,0-4.85,0-9.69,0-14.54a13,13,0,0,0-.06-1.77c-.29-2.2-1.39-3.55-3.16-4a6,6,0,0,0-6.26,2.12,7.49,7.49,0,0,0-1.26,4.45c0,4.57,0,9.13,0,13.7,0,.88-.24,1.11-1.1,1.07-1.61-.07-3.22,0-4.83,0-.6,0-.85-.09-.85-.78q0-12.66,0-25.31c0-.63.15-.85.81-.83,1.61.05,3.22,0,4.83,0,.62,0,.77.2.75.78C124.78,30,124.81,31.05,124.81,32.12Z"/><path class="cls-1" d="M172,51.23c0,1,0,2.08,0,3.12,0,.53-.14.72-.7.7-1.68,0-3.36,0-5,0-.51,0-.71-.15-.65-.65a4.51,4.51,0,0,0,0-.52q0-19.12,0-38.26c0-1,.3-1.19,1.21-1.15,1.57.07,3.15.06,4.72,0,.71,0,.86.21.85.88,0,5,0,10,0,15.05v1a.25.25,0,0,0,.38-.09c4.14-5.25,14.77-5.56,19.56,1.85a16.17,16.17,0,0,1-.41,17.54,12.45,12.45,0,0,1-19.9.52Zm.14-9.64a7.9,7.9,0,1,0,15.8.07,7.9,7.9,0,1,0-15.8-.07Z"/><path class="cls-1" d="M52.65,41.94c-.27-8,5.82-14.21,14.15-14.44S81.7,33,82,40.84c.26,8.3-5.6,14.59-13.83,14.84C59.28,56,52.93,50.31,52.65,41.94Zm6.75-.48a7.91,7.91,0,1,0,15.82.34,7.91,7.91,0,1,0-15.82-.34Z"/><path class="cls-1" d="M85,41.59c0-8.17,6.21-14.11,14.71-14.09s14.58,6,14.58,14.11S108.11,55.7,99.6,55.69,85,49.71,85,41.59Zm6.75,0a7.9,7.9,0,1,0,15.8-.09,7.9,7.9,0,1,0-15.8.09Z"/><path class="cls-1" d="M214.74,44c-3.12,0-6.23,0-9.34,0-.81,0-.89.21-.72.94,1.32,5.64,7.58,6.55,11.43,4.34a8,8,0,0,0,2.41-2c.39-.48.65-.44,1.09-.09,1.15.91,2.3,1.83,3.52,2.64.76.49.54.79.06,1.3a14.25,14.25,0,0,1-12.09,4.57,14,14,0,0,1-.46-28c4.22-.43,8,.45,11,3.71a14.48,14.48,0,0,1,3.4,9c.07.94,0,1.88.12,2.82,0,.65-.18.82-.82.81C221.1,43.94,217.92,44,214.74,44Zm-3.37-5c2.06,0,4.13,0,6.19,0,.68,0,.81-.19.72-.84a5.94,5.94,0,0,0-2.51-4.39,7.18,7.18,0,0,0-11.14,4.48c-.13.66.07.76.66.75C207.31,38.91,209.34,38.93,211.37,38.93Z"/><path class="cls-1" d="M41.43,34.78c0-6.45,0-12.9,0-19.35,0-.78.18-1,1-1,1.67.07,3.36,0,5,0,.6,0,.74.17.74.75q0,19.51,0,39c0,.63-.14.84-.81.82-1.68-.05-3.36-.06-5,0-.77,0-.91-.23-.91-.93C41.44,47.68,41.43,41.23,41.43,34.78Z"/><path class="cls-1" d="M236.22,32.18a9.31,9.31,0,0,1,5.77-4.4,8.78,8.78,0,0,1,3.95-.09c.53.11.82.29.8.95-.06,1.87,0,3.76,0,5.72a16,16,0,0,0-4-.44,6.55,6.55,0,0,0-6.5,6.59c-.07,4.47,0,8.93,0,13.39,0,.87-.12,1.23-1.12,1.17-1.64-.1-3.29,0-4.93,0-.53,0-.73-.12-.73-.69q0-12.75,0-25.51c0-.56.19-.71.72-.7,1.75,0,3.5,0,5.25,0,.69,0,.82.25.79.86C236.19,30.06,236.22,31.12,236.22,32.18Z"/></svg>