<svg id="Layer_1" data-name="Layer 1" xmlns="http://www.w3.org/2000/svg" viewBox="0 0 185.07 79.93"><defs><style>.cls-1{fill:#fff;}</style></defs><path class="cls-1" d="M48.13,74.69a4.3,4.3,0,0,1-1.26-.89c-2.86-2.69-5.68-5.41-8.52-8.12-3-2.88-5.93-5.9-8.81-8.93-.13-.14-.27-.27-.41-.4s-.15,0-.17.08v.14c.05,1.55.09,3.1.13,4.66s.09,3,.13,4.54.08,3,.14,4.52a8.39,8.39,0,0,0,.27,1.93,3,3,0,0,0,.22.56,1.23,1.23,0,0,0,.77.64,6.32,6.32,0,0,0,1.44.19,2.37,2.37,0,0,1,.53,0c.15,0,.29.13.29.32s-.13.26-.29.3a2.42,2.42,0,0,1-.46.06c-1.23,0-2.47,0-3.7-.11-.49,0-1,0-1.49,0-1,0-2.06.11-3.09.09a2,2,0,0,1-.42-.06A.26.26,0,0,1,23.2,74a.29.29,0,0,1,.17-.32.75.75,0,0,1,.41-.09,7.71,7.71,0,0,0,1.35-.13,1.12,1.12,0,0,0,1-.87,6.38,6.38,0,0,0,.2-1.51c.08-1.57.07-3.15.1-4.73l.15-9.49c0-2.29.07-4.59.11-6.89a2.76,2.76,0,0,1,.09-.81c.16-.5.48-.62.93-.35a4.73,4.73,0,0,1,.86.75c2.35,2.37,4.69,4.75,7.06,7.11,2.88,2.87,5.79,5.71,8.64,8.61.73.76,1.48,1.5,2.22,2.25.09.09.17.25.31.2s.06-.23.06-.35c0-1.83-.08-3.65-.13-5.48l-.21-9.09a8.63,8.63,0,0,0-.17-1.52A1.61,1.61,0,0,0,44.85,50a7.31,7.31,0,0,0-1.24-.08,1.34,1.34,0,0,1-.35,0,.31.31,0,0,1-.28-.32.28.28,0,0,1,.28-.27,2.39,2.39,0,0,1,.53,0c1.08,0,2.16,0,3.24,0s2.08,0,3.13,0h1.56a1.29,1.29,0,0,1,.39,0,.27.27,0,0,1,0,.51.8.8,0,0,1-.48.1,3.37,3.37,0,0,0-1.05.14,1.37,1.37,0,0,0-1,1,7.5,7.5,0,0,0-.2,2c0,2.16-.07,4.33-.11,6.5,0,2.54-.1,5.07-.14,7.61,0,2.13-.09,4.26-.13,6.39a1.46,1.46,0,0,1-.35,1.08Z"/><path class="cls-1" d="M181.77,74.12a.79.79,0,0,1-.58.2c-1.61,0-3.23.06-4.84,0a6.1,6.1,0,0,1-3.95-1.88,29.46,29.46,0,0,1-2.64-3.16c-1.1-1.44-2.12-2.94-3.16-4.42-.54-.77-.54-.77-1.49-.79L162.7,64c-.41,0-.48.05-.48.47,0,2.21,0,4.43.14,6.64a8.52,8.52,0,0,0,.19,1.41,1.25,1.25,0,0,0,1.11,1,12.65,12.65,0,0,0,1.63.14.59.59,0,0,1,.37.07.32.32,0,0,1,.18.29.29.29,0,0,1-.21.26,1.45,1.45,0,0,1-.55.09c-1.21,0-2.42,0-3.63-.08s-2.6,0-3.91,0l-1.88.06a1.37,1.37,0,0,1-.45-.07A.3.3,0,0,1,155,74c0-.17.12-.25.26-.3a.82.82,0,0,1,.35,0,7.12,7.12,0,0,0,.92-.07,1.2,1.2,0,0,0,1.06-.92,5.85,5.85,0,0,0,.19-1.11c.1-1.29.13-2.58.13-3.87V53c0-.45,0-.9-.06-1.34a1.51,1.51,0,0,0-1.13-1.47,5,5,0,0,0-1.44-.21,1.89,1.89,0,0,1-.53,0c-.16,0-.29-.13-.29-.31s.15-.26.31-.28a5,5,0,0,1,.67,0c1,0,1.92,0,2.88,0,1.49.07,3,0,4.48,0,1.3,0,2.61-.06,3.91,0a11.66,11.66,0,0,1,3.82.73,5.67,5.67,0,0,1,3,8A11.41,11.41,0,0,1,171,61.15c-.42.4-.86.78-1.31,1.15l-.31.26,1,1.18c1.74,2.14,3.47,4.29,5.33,6.33a19.31,19.31,0,0,0,2.48,2.39,5.65,5.65,0,0,0,2.69,1.13,2.55,2.55,0,0,0,.39,0,.66.66,0,0,1,.56.23ZM162.22,56.51V61.2a2.55,2.55,0,0,0,0,.39.5.5,0,0,0,.36.44l.31.08a12.13,12.13,0,0,0,3.18.19,3,3,0,0,0,1.74-.72,5,5,0,0,0,1.56-2.25,7.79,7.79,0,0,0,0-4.89,4.69,4.69,0,0,0-3.12-3.16,8.51,8.51,0,0,0-3.69-.18c-.24,0-.35.16-.38.41s0,.21,0,.31Z"/><path class="cls-1" d="M63.06,74.69a2.87,2.87,0,0,0-.82-.13,10.2,10.2,0,0,1-2.44-.64l-.16-.07a.81.81,0,0,1-.57-.84c0-.8,0-1.59,0-2.38s.08-1.4.12-2.1c0-.17,0-.35.06-.53a.88.88,0,0,1,.1-.3.34.34,0,0,1,.35-.19.3.3,0,0,1,.26.3c0,.24,0,.49.07.74a5.74,5.74,0,0,0,.66,2.09,3.93,3.93,0,0,0,1.76,1.64,6.9,6.9,0,0,0,5.12.48,4,4,0,0,0,2.93-4,4.07,4.07,0,0,0-1.33-3.13A11.38,11.38,0,0,0,67,64.08c-1.17-.7-2.37-1.34-3.48-2.14a10.18,10.18,0,0,1-2.5-2.4,6.57,6.57,0,0,1-.83-6.25,6.09,6.09,0,0,1,2.83-3.13,9.92,9.92,0,0,1,4.28-1.29,19.44,19.44,0,0,1,5.79.44c.65.14.68.21.64.9-.07,1.15-.11,2.31-.1,3.48a2.09,2.09,0,0,1-.07.7.82.82,0,0,1-.1.26.3.3,0,0,1-.54,0,.82.82,0,0,1-.07-.31A3.7,3.7,0,0,0,70.6,51a5.82,5.82,0,0,0-5.56.35,3.27,3.27,0,0,0-.8,4.89,7.89,7.89,0,0,0,1.61,1.39c.78.53,1.62,1,2.45,1.43a18.82,18.82,0,0,1,3.3,2.21,8.33,8.33,0,0,1,2.28,3,7.71,7.71,0,0,1,.53,3.65,7.06,7.06,0,0,1-3,5.16,7.81,7.81,0,0,1-4,1.54c-.1,0-.22,0-.3.07Z"/><path class="cls-1" d="M15.77,3.22v.06c-.47,0-.95,0-1.42,0-1.48,0-2.95.12-4.43.1-1.82,0-3.64-.13-5.46-.11V3.22Z"/><path class="cls-1" d="M4.46,3.28c1.82,0,3.64.08,5.46.11,1.48,0,2.95-.07,4.43-.1.47,0,1,0,1.42,0a15.69,15.69,0,0,1,2.8.44,7,7,0,0,1,2.8,1.41,5.12,5.12,0,0,1,1.81,3.8,7.05,7.05,0,0,1-1.86,5,13.34,13.34,0,0,1-1.72,1.64l-.34.3a1,1,0,0,0,.38.18,12.07,12.07,0,0,1,4.13,2.57A7.64,7.64,0,0,1,26.2,23.1a7.75,7.75,0,0,1-2.12,6.76,9.37,9.37,0,0,1-4.74,2.59,17.18,17.18,0,0,1-5,.32,58.64,58.64,0,0,0-6.22-.13c-.91,0-1.82.06-2.73.08a1.36,1.36,0,0,1-.53-.07.32.32,0,0,1-.27-.33c0-.19.16-.26.31-.28C5.25,32,5.6,32,6,32l.49-.07a1.16,1.16,0,0,0,1-.82,6,6,0,0,0,.3-1.45,37.09,37.09,0,0,0,.17-3.94c0-5.48,0-10.95,0-16.43,0-1.1,0-2.2-.1-3.3a.41.41,0,0,1,0-.11A1.74,1.74,0,0,0,6.32,4.13,6,6,0,0,0,5.05,4a5,5,0,0,1-.67,0c-.26,0-.37-.13-.4-.29s.09-.26.34-.35Zm9.12,14.09H13c-.38,0-.43.05-.43.44q0,4.9,0,9.81a8.31,8.31,0,0,0,.11,1.49,1.74,1.74,0,0,0,1.11,1.44l.3.12a7.34,7.34,0,0,0,3.32.37,4.39,4.39,0,0,0,4-4.07A9.94,9.94,0,0,0,21.31,24a8.87,8.87,0,0,0-2.95-5.21,5.17,5.17,0,0,0-2.79-1.31A18.24,18.24,0,0,0,13.58,17.37Zm-1-7V15c0,.54.05.6.58.68l.11,0a14.32,14.32,0,0,0,2.45,0A3.18,3.18,0,0,0,17.6,15a3.9,3.9,0,0,0,1.14-1.77A7.24,7.24,0,0,0,17.94,7,4.31,4.31,0,0,0,15.42,5a5.6,5.6,0,0,0-2-.13c-.73.07-.79.15-.79.88Z"/><path class="cls-1" d="M105,49.32c2.37,0,4.6-.08,6.83,0a21.57,21.57,0,0,1,6.18,1,11,11,0,0,1,5.77,4.18,11.2,11.2,0,0,1,1.87,4.78,13.41,13.41,0,0,1-.44,6.26,11.75,11.75,0,0,1-4.64,6.4,14.8,14.8,0,0,1-5,2.12,21.79,21.79,0,0,1-5.75.53c-2-.06-3.9-.24-5.85-.35-.63,0-1.25,0-1.88,0l-3.27.11a1.37,1.37,0,0,1-.53-.08.3.3,0,0,1-.22-.28.33.33,0,0,1,.22-.3,1,1,0,0,1,.42,0,6.25,6.25,0,0,0,1.06-.11,1.08,1.08,0,0,0,.85-.77,4.91,4.91,0,0,0,.23-1.26c.11-1.39.13-2.79.13-4.19q0-7.22,0-14.43c0-.41,0-.83,0-1.24a1.51,1.51,0,0,0-1.13-1.47,5.1,5.1,0,0,0-1.4-.21,2.79,2.79,0,0,1-.5,0c-.22,0-.37-.17-.37-.32s.14-.27.38-.29a3.71,3.71,0,0,1,.47,0c1.13,0,2.27,0,3.41,0S104,49.36,105,49.32Zm.61,11.56v7c0,.85.08,1.7.13,2.55a2,2,0,0,0,1.36,1.85,7.27,7.27,0,0,0,1.78.45,15.9,15.9,0,0,0,3.16,0,10.68,10.68,0,0,0,3.39-.7,7.75,7.75,0,0,0,4.87-5.06,14.71,14.71,0,0,0,.6-4,14.16,14.16,0,0,0-.56-4.71,9.32,9.32,0,0,0-2.45-4.1,11.59,11.59,0,0,0-4-2.43,17.19,17.19,0,0,0-6.72-.84,4.91,4.91,0,0,0-.77.1c-.64.13-.76.28-.77.93C105.55,55,105.57,57.94,105.6,60.88Z"/><path class="cls-1" d="M95.66,14.69a.27.27,0,0,0-.07.24c.09,3.21.19,6.42.28,9.63,0,1.36.08,2.72.13,4.08a8.38,8.38,0,0,0,.27,2,3.08,3.08,0,0,0,.21.53,1.24,1.24,0,0,0,.8.65,6.54,6.54,0,0,0,1.59.2,1,1,0,0,1,.45.07.31.31,0,0,1,.2.3.29.29,0,0,1-.22.26,1.79,1.79,0,0,1-.56.07c-1.08,0-2.16,0-3.24-.08s-1.89,0-2.84,0c-.71,0-1.42.06-2.13,0a1.61,1.61,0,0,1-.49-.07.27.27,0,0,1-.21-.26.29.29,0,0,1,.15-.26.8.8,0,0,1,.48-.11,8.07,8.07,0,0,0,1.3-.13,1.13,1.13,0,0,0,1-.87,6.38,6.38,0,0,0,.2-1.51c.08-1.69.07-3.39.1-5.08,0-3.05.09-6.09.14-9.14l.12-7a2,2,0,0,1,.13-.8.51.51,0,0,1,.8-.3,3.08,3.08,0,0,1,.79.65c.93.93,1.85,1.87,2.78,2.81,3.09,3.14,6.24,6.22,9.37,9.33,2,2,3.9,3.94,5.86,5.91a2.83,2.83,0,0,0,.25.24c.11.08.18.05.2-.08v-.14c-.1-3.91-.18-7.82-.29-11.73,0-1.21,0-2.42-.11-3.62a5.66,5.66,0,0,0-.13-.84,1.59,1.59,0,0,0-1.46-1.3,7.15,7.15,0,0,0-1.31-.08.83.83,0,0,1-.38-.07.28.28,0,0,1-.17-.28.26.26,0,0,1,.19-.24,1.28,1.28,0,0,1,.52-.06c1.09,0,2.18,0,3.27,0s2.18,0,3.27,0h1.46a1.72,1.72,0,0,1,.39,0A.26.26,0,0,1,119,8a.28.28,0,0,1-.19.3.93.93,0,0,1-.49.08,3.22,3.22,0,0,0-1,.14,1.4,1.4,0,0,0-1,1,7.7,7.7,0,0,0-.19,1.91c0,2.16-.07,4.33-.11,6.5,0,2.5-.09,5-.14,7.5,0,2.19-.09,4.38-.13,6.57a2.14,2.14,0,0,1-.1.71.51.51,0,0,1-.64.4,1.86,1.86,0,0,1-1-.5c-.82-.77-1.65-1.53-2.46-2.31-3.42-3.25-6.85-6.49-10.19-9.82-1.7-1.7-3.34-3.46-5-5.19A2.85,2.85,0,0,0,95.66,14.69Z"/><path class="cls-1" d="M49.75,17c0-1.9,0-3.79,0-5.69a9.66,9.66,0,0,0-.12-1.7,1.32,1.32,0,0,0-.78-1,4.13,4.13,0,0,0-1.66-.32,1.63,1.63,0,0,1-.49,0c-.15-.06-.26-.14-.26-.31s.13-.24.28-.27a1.34,1.34,0,0,1,.35,0c1.26,0,2.51,0,3.77.06,1,0,2.11-.06,3.16-.06h1.39a.82.82,0,0,1,.38.06.28.28,0,0,1,0,.49.79.79,0,0,1-.45.1,5.13,5.13,0,0,0-1.16.15,1.16,1.16,0,0,0-1,.94,4.41,4.41,0,0,0-.12,1c-.09,2-.06,4-.07,5.94,0,1.67,0,3.34,0,5a21.48,21.48,0,0,1-.4,4.31,10.34,10.34,0,0,1-1.22,3.21,8.45,8.45,0,0,1-3.15,3,10.26,10.26,0,0,1-4.5,1.29A19.49,19.49,0,0,1,39.5,33a9.73,9.73,0,0,1-4.07-1.49,8,8,0,0,1-3-3.85,13.34,13.34,0,0,1-.78-3.74c-.07-.84-.07-1.68-.07-2.53V11.5c0-.53,0-1.05-.07-1.57a1.44,1.44,0,0,0-1-1.34,4.92,4.92,0,0,0-1.61-.25,1.18,1.18,0,0,1-.49-.06A.29.29,0,0,1,28.14,8c0-.16.11-.23.24-.27a2.07,2.07,0,0,1,.5,0q2.13,0,4.26.06c1.67,0,3.34-.08,5-.07.2,0,.41,0,.61,0s.39.12.4.28-.15.33-.42.35a6.54,6.54,0,0,0-.88.08l-.21,0a1.36,1.36,0,0,0-1.26,1.39,25.7,25.7,0,0,0-.11,2.63c0,3.23,0,6.47,0,9.71a18.2,18.2,0,0,0,.41,4.09,6.28,6.28,0,0,0,1.51,3,6,6,0,0,0,3.87,1.9,8.18,8.18,0,0,0,3-.18,5.74,5.74,0,0,0,4.35-4.5,18.05,18.05,0,0,0,.37-3.95V17Z"/><path class="cls-1" d="M130.33,32.68c-1.61,0-3.22-.12-4.84,0-.91,0-1.82.06-2.73.08a1.41,1.41,0,0,1-.46,0c-.14-.05-.26-.13-.26-.3a.34.34,0,0,1,.25-.31,1,1,0,0,1,.38,0,6.25,6.25,0,0,0,1.06-.11,1.11,1.11,0,0,0,.86-.77,4.81,4.81,0,0,0,.21-1c.09-.92.13-1.85.13-2.77q0-8.24,0-16.46a7.45,7.45,0,0,0-.07-1.06,1.43,1.43,0,0,0-.94-1.23,4.44,4.44,0,0,0-1.57-.28,3.17,3.17,0,0,1-.53,0c-.21,0-.33-.17-.33-.32s.11-.26.34-.29a4.78,4.78,0,0,1,.53,0c2.43,0,4.86.09,7.29.07h6.61a6.92,6.92,0,0,0,2.07-.31c.33-.1.5,0,.42.37a35.42,35.42,0,0,0-.39,3.84,3,3,0,0,1-.07.43.91.91,0,0,1-.16.38.27.27,0,0,1-.29.1.24.24,0,0,1-.18-.23l-.06-.71a2.41,2.41,0,0,0-.18-.65,1.7,1.7,0,0,0-1.24-1.07,6.94,6.94,0,0,0-1.44-.2c-1.58-.07-3.17-.1-4.76-.12-.38,0-.43,0-.43.43v8c0,.41,0,.45.45.45,1.79,0,3.57,0,5.36-.06a9.09,9.09,0,0,0,1.17-.12,1.64,1.64,0,0,0,1-.51l.2-.2a.31.31,0,0,1,.32-.1.3.3,0,0,1,.18.32c0,.3,0,.59-.08.89a38.22,38.22,0,0,0-.34,3.85,1,1,0,0,1-.1.45.28.28,0,0,1-.31.18.26.26,0,0,1-.25-.25c0-.15,0-.29,0-.43s0-.4-.05-.6a1.56,1.56,0,0,0-1.17-1.33,3.7,3.7,0,0,0-.87-.16c-1.7-.09-3.39-.12-5.09-.14-.32,0-.36,0-.37.37v.07c0,2.45,0,4.9,0,7.36a4.71,4.71,0,0,0,.14,1.12A1.92,1.92,0,0,0,131,30.52a4.17,4.17,0,0,0,1.21.27,17.2,17.2,0,0,0,4.18-.05l.21,0a2.54,2.54,0,0,0,2.25-2.23c0-.22.08-.44.14-.66s.18-.32.33-.31.26.12.29.35a2.74,2.74,0,0,1,0,.64,20,20,0,0,1-.42,3.27c-.18.83-.41,1-1.27,1-2.25,0-4.51,0-6.76-.11Z"/><path class="cls-1" d="M140,74.27c-1.38,0-2.72-.1-4.06-.06l-3.51.12a1.75,1.75,0,0,1-.46,0c-.16,0-.29-.13-.3-.31a.35.35,0,0,1,.32-.33,2,2,0,0,1,.43,0,6,6,0,0,0,.84-.09,1.16,1.16,0,0,0,1-.89,7.73,7.73,0,0,0,.23-1.58c.11-2,.09-4,.09-5.93q0-5.61,0-11.2c0-.63,0-1.26,0-1.89a3.72,3.72,0,0,0-.08-.74,1.33,1.33,0,0,0-.79-1A3.57,3.57,0,0,0,132.3,50l-.68,0a.61.61,0,0,1-.39-.13.25.25,0,0,1,0-.44.84.84,0,0,1,.38-.08h1.18c4.38.09,8.76.1,13.15.07a6.9,6.9,0,0,0,2-.3c.37-.11.54,0,.46.39a32.09,32.09,0,0,0-.4,3.78,2.8,2.8,0,0,1-.12.63.58.58,0,0,1-.14.24.25.25,0,0,1-.44-.13c0-.1,0-.21,0-.32a3.1,3.1,0,0,0-.28-1.2,1.57,1.57,0,0,0-1-.87,6.05,6.05,0,0,0-1.64-.27c-1.58-.08-3.17-.09-4.76-.12-.37,0-.44.05-.44.43v8c0,.4.06.45.45.45,1.81,0,3.61,0,5.41-.06.37,0,.73-.07,1.09-.11a1.8,1.8,0,0,0,1.08-.56c.13-.13.24-.35.47-.25s.19.36.17.56c-.07.67-.15,1.34-.23,2s-.14,1.56-.18,2.34a1.61,1.61,0,0,1-.06.49c-.07.21-.19.3-.35.28s-.25-.15-.26-.33,0-.47,0-.7a1.63,1.63,0,0,0-1.37-1.63,8.09,8.09,0,0,0-1.7-.16l-4-.09c-.41,0-.45,0-.45.44v7.32a4.45,4.45,0,0,0,.13,1.09,1.91,1.91,0,0,0,1.31,1.46,5,5,0,0,0,1.21.27,17.65,17.65,0,0,0,4.11-.05,5.93,5.93,0,0,0,.73-.16,2.22,2.22,0,0,0,1.56-1.43,6.57,6.57,0,0,0,.27-1,1.5,1.5,0,0,1,.15-.51.27.27,0,0,1,.26-.15.26.26,0,0,1,.24.18,1,1,0,0,1,.07.38,10.55,10.55,0,0,1-.08,1.49c-.08.7-.17,1.39-.3,2.08a2.68,2.68,0,0,1-.07.27c-.17.64-.37.82-1,.88h-.35c-2,0-3.91,0-5.87-.08C141,74.31,140.47,74.26,140,74.27Z"/><path class="cls-1" d="M73.08,10.6v1.63a1.84,1.84,0,0,1-.11.7c-.09.21-.21.29-.38.26a.33.33,0,0,1-.27-.33,6,6,0,0,0-.11-.84,3.86,3.86,0,0,0-2.59-2.8,6.07,6.07,0,0,0-4.83.32A3.15,3.15,0,0,0,63,11.65a3.34,3.34,0,0,0,.87,3.25,10.3,10.3,0,0,0,2.16,1.61c1,.57,2,1.06,2.9,1.65a13.3,13.3,0,0,1,3.17,2.62,7.31,7.31,0,0,1,1.72,5.4,7.08,7.08,0,0,1-3,5.34A7.67,7.67,0,0,1,66.93,33,21,21,0,0,1,61.62,33a11.44,11.44,0,0,1-2.37-.6,1,1,0,0,1-.78-1.15c0-.83,0-1.66.07-2.49,0-.66.09-1.33.12-2a1.78,1.78,0,0,1,.08-.45c.07-.26.23-.39.41-.36s.28.17.29.43a7.06,7.06,0,0,0,.12,1,4.49,4.49,0,0,0,3.5,3.77,6.85,6.85,0,0,0,4,0,4.11,4.11,0,0,0,2.91-4.63,4.37,4.37,0,0,0-1.59-2.73,11.2,11.2,0,0,0-1.65-1.17c-1.14-.69-2.32-1.33-3.43-2.08a11.65,11.65,0,0,1-2.49-2.21,6.73,6.73,0,0,1-1.55-4.47,5.67,5.67,0,0,1,1.27-3.64,7.25,7.25,0,0,1,2.66-2,10.84,10.84,0,0,1,4.55-1,20.92,20.92,0,0,1,4.8.49l.1,0c.55.14.6.21.58.78S73.12,9.71,73.08,10.6Z"/><path class="cls-1" d="M149.25,33.15a19,19,0,0,1-4-.41,9.81,9.81,0,0,1-1.42-.46.92.92,0,0,1-.63-1c0-.55,0-1.09,0-1.64.05-1,.11-2,.17-3.05a1.27,1.27,0,0,1,.12-.51.34.34,0,0,1,.34-.21.33.33,0,0,1,.29.28,2.58,2.58,0,0,1,0,.39,5.57,5.57,0,0,0,.5,2.09,4,4,0,0,0,2,2,6.76,6.76,0,0,0,5.14.44A3.85,3.85,0,0,0,154.64,28a4.09,4.09,0,0,0-1.25-3.88,11.78,11.78,0,0,0-2.06-1.52c-1.1-.66-2.24-1.28-3.31-2A11.14,11.14,0,0,1,145.24,18,6.59,6.59,0,0,1,144,14.56a6.07,6.07,0,0,1,.56-3.25,6.49,6.49,0,0,1,2.68-2.76,10.1,10.1,0,0,1,4.29-1.29,19.85,19.85,0,0,1,5.75.44l.17,0c.45.12.53.2.5.67-.08,1.3-.1,2.6-.12,3.9a1.67,1.67,0,0,1-.11.63c-.07.15-.16.26-.35.24s-.25-.15-.28-.31a.76.76,0,0,1,0-.21,3.78,3.78,0,0,0-2.6-3.41,6,6,0,0,0-4.93.29,3.09,3.09,0,0,0-1.78,2.22,3.29,3.29,0,0,0,.7,2.9,7.61,7.61,0,0,0,1.71,1.44c.79.52,1.63.95,2.46,1.41a18.43,18.43,0,0,1,3.09,2.09,8.65,8.65,0,0,1,2.09,2.53,7.41,7.41,0,0,1,.8,3.92,6.8,6.8,0,0,1-2.27,4.81A7.93,7.93,0,0,1,151.49,33,21,21,0,0,1,149.25,33.15Z"/><path class="cls-1" d="M177.22,10.36v1.92a1.83,1.83,0,0,1-.11.66.33.33,0,0,1-.35.25c-.19,0-.25-.15-.29-.3a1.13,1.13,0,0,1,0-.18,3.75,3.75,0,0,0-2.63-3.46,5.87,5.87,0,0,0-5.13.44,3.29,3.29,0,0,0-.69,5.16,10.94,10.94,0,0,0,2.27,1.7c1,.56,1.94,1.05,2.88,1.64a12.86,12.86,0,0,1,3.22,2.7,7.34,7.34,0,0,1,1.6,5.52,7.07,7.07,0,0,1-3,5.1A7.78,7.78,0,0,1,171,33a21,21,0,0,1-4.75,0,10.93,10.93,0,0,1-3-.71,1,1,0,0,1-.66-1c0-1.54.09-3.08.2-4.62a1.29,1.29,0,0,1,.1-.51c.1-.19.23-.28.39-.25a.34.34,0,0,1,.26.34,7.78,7.78,0,0,0,.14,1.17,5,5,0,0,0,.88,2.07A4.58,4.58,0,0,0,166.72,31a6.82,6.82,0,0,0,4.46.17,3.91,3.91,0,0,0,2.87-3.29,4,4,0,0,0-1-3.52,8.71,8.71,0,0,0-1.93-1.55c-1-.59-2-1.16-2.93-1.75a13.8,13.8,0,0,1-2.77-2.15,6.91,6.91,0,0,1-1.94-3.69,6.1,6.1,0,0,1,3.13-6.63,9.94,9.94,0,0,1,4.31-1.31,19.92,19.92,0,0,1,5.76.44c.67.15.71.23.66.92s0,1.16-.08,1.74Z"/><path class="cls-1" d="M12,74.2c-1.2,0-2.76.08-4.33.12q-.39,0-.78,0a1.74,1.74,0,0,1-.39,0c-.25,0-.37-.19-.36-.36s.15-.27.4-.28a12.15,12.15,0,0,0,1.48-.14,1.26,1.26,0,0,0,1.08-.95,6.71,6.71,0,0,0,.23-1.4c.1-1.22.14-2.44.14-3.66,0-6.05,0-12.11,0-18.16a13.21,13.21,0,0,0-.12-2,3.3,3.3,0,0,0-.15-.62,1.47,1.47,0,0,0-1.06-1,5,5,0,0,0-1.09-.16,4,4,0,0,1-.6,0c-.26,0-.38-.15-.37-.34s.11-.26.38-.3.35,0,.53,0c1.16,0,2.32,0,3.48.08,1.87.07,3.74,0,5.62-.07h1a1.26,1.26,0,0,1,.38.06.28.28,0,0,1,.2.27.31.31,0,0,1-.21.3,1.77,1.77,0,0,1-.46.07,5.59,5.59,0,0,0-.91.08,1.61,1.61,0,0,0-1.58,1.61,17.38,17.38,0,0,0-.13,2.27c0,6,0,12,0,17.92,0,1.3,0,2.61.13,3.91a4.67,4.67,0,0,0,.15.91,1.44,1.44,0,0,0,1.23,1.13,14.09,14.09,0,0,0,2.15.2,1.18,1.18,0,0,1,.42,0c.12,0,.22.12.23.25a.32.32,0,0,1-.18.29,1.49,1.49,0,0,1-.62.12c-1,0-2,0-2.92-.06Z"/><path class="cls-1" d="M86.19,74.19l-4.27.13h-.71a1.2,1.2,0,0,1-.45-.09.28.28,0,0,1-.2-.26.31.31,0,0,1,.18-.29.87.87,0,0,1,.42-.07,5.43,5.43,0,0,0,1.13-.12,1.09,1.09,0,0,0,.89-.86,8.56,8.56,0,0,0,.22-1.83c.07-1.33.08-2.67.08-4q0-7.06,0-14.12a6.72,6.72,0,0,0-.12-1.48,1.37,1.37,0,0,0-1-1.06,3.76,3.76,0,0,0-1.25-.2,1.18,1.18,0,0,1-.42,0,.31.31,0,0,1-.23-.32c0-.17.12-.22.25-.25a2.28,2.28,0,0,1,.64,0c1,0,2,0,3,0,1.52.07,3,0,4.55,0,.46,0,.92,0,1.38,0a2.09,2.09,0,0,1,.43,0,.24.24,0,0,1,.23.23.32.32,0,0,1-.22.33.81.81,0,0,1-.31,0,5.66,5.66,0,0,0-1.16.14,1.27,1.27,0,0,0-1.06,1.06,6.85,6.85,0,0,0-.12,1.35c0,1.17,0,2.34,0,3.52q0,6.6,0,13.22c0,.9,0,1.8.13,2.7.12,1.06.46,1.43,1.52,1.59a10.52,10.52,0,0,0,1.48.1.85.85,0,0,1,.42.06c.13.06.23.13.23.29a.3.3,0,0,1-.23.28,1.33,1.33,0,0,1-.49.08c-1.44,0-2.89-.06-4.33-.1-.22,0-.43,0-.64,0Z"/><path class="cls-1" d="M82.22,32.6c-1.1,0-2.31.07-3.51.1l-1.35,0a1,1,0,0,1-.46-.08.27.27,0,0,1-.19-.27.31.31,0,0,1,.18-.28.87.87,0,0,1,.42-.07,4.78,4.78,0,0,0,1.19-.14,1,1,0,0,0,.78-.7A4.57,4.57,0,0,0,79.49,30c.1-1.06.11-2.11.12-3.16q0-7.78,0-15.58a8.5,8.5,0,0,0-.1-1.59A1.45,1.45,0,0,0,78.4,8.49a4.5,4.5,0,0,0-1.16-.15,1,1,0,0,1-.42-.05A.33.33,0,0,1,76.63,8c0-.15.11-.2.23-.24a1.35,1.35,0,0,1,.45,0c.94,0,1.88,0,2.81,0,1.42.06,2.84,0,4.27,0,.62,0,1.25,0,1.88,0a2.31,2.31,0,0,1,.64.05c.11,0,.22.09.22.24a.3.3,0,0,1-.19.31.83.83,0,0,1-.35.06,5.13,5.13,0,0,0-1.16.15,1.22,1.22,0,0,0-1,1,6.41,6.41,0,0,0-.14,1.31c-.06,2.09-.05,4.19-.05,6.29,0,3.73,0,7.46.05,11.19a17.44,17.44,0,0,0,.14,2.17,2.7,2.7,0,0,0,.08.41,1.25,1.25,0,0,0,.93.94,8.09,8.09,0,0,0,1.48.18h.74c.24,0,.4.17.4.34s-.12.25-.37.32a1.53,1.53,0,0,1-.43,0C85.6,32.72,84,32.66,82.22,32.6Z"/></svg>