<svg id="Layer_1" data-name="Layer 1" xmlns="http://www.w3.org/2000/svg" viewBox="0 0 213.65 69.62"><defs><style>.cls-1{fill:#fff;}</style></defs><path class="cls-1" d="M22.7,38.34c-.11.85-.2,1.54-.28,2.24,0,.16-.05.32-.06.49-.1,1.52.51,2.17,2.05,2.17h3.71c1.46,0,2.07-.73,1.89-2.18-.23-1.82-.43-3.64-.67-5.45a.63.63,0,0,1,.37-.73,33.09,33.09,0,0,0,6.29-5,24.73,24.73,0,0,0,6.83-12.06c.1-.49.19-1,.3-1.55.22.08.39.13.55.2,1.2.52,2.39,1.06,3.59,1.57a.77.77,0,0,1,.55.73c.11,1.77.33,3.54.31,5.31A38.7,38.7,0,0,1,43.86,42a37.18,37.18,0,0,1-8.77,10.87,46.29,46.29,0,0,1-8,5.39,1.45,1.45,0,0,1-1.55,0A39.53,39.53,0,0,1,9.09,42.53c-.26-.47-.49-1-.79-1.53A41.58,41.58,0,0,0,22.7,38.34Z"/><path class="cls-1" d="M41,16.25c.15,4.3-5.7,13.08-10.38,15.54l.21-.54a4.74,4.74,0,0,0-.69-5.39,4.69,4.69,0,0,0-5.26-1.53,4.71,4.71,0,0,0-3.48,4.17,4.78,4.78,0,0,0,1.78,4.44.74.74,0,0,1,.32.74c-.1.64-.15,1.29-.28,1.93a.84.84,0,0,1-.42.53,36.37,36.37,0,0,1-9.88,2.53c-1.68.17-3.37.19-5.05.3A.75.75,0,0,1,7,38.4,37.5,37.5,0,0,1,4.42,25.13c0-2.17.18-4.35.27-6.52A.63.63,0,0,1,5.14,18c1.55-.66,3.08-1.37,4.64-2a1.25,1.25,0,0,1,.81,0,12.13,12.13,0,0,0,13.27-3.52,1.55,1.55,0,0,1,1.39-.61c.83.05,1.67,0,2.51,0a1.22,1.22,0,0,1,.77.35,12.61,12.61,0,0,0,7.55,4.31,11,11,0,0,0,4.27-.1Z"/><path class="cls-1" d="M140.65,42.91V23.75c0-.74,0-.75.77-.75,2.65,0,5.3,0,8,0a12.59,12.59,0,0,1,3.1.48A6.75,6.75,0,0,1,157,28.07a13.91,13.91,0,0,1,.67,6.11,13.57,13.57,0,0,1-1.4,5.26A5.88,5.88,0,0,1,151,42.86c-3.37.11-6.75.08-10.12.11A1,1,0,0,1,140.65,42.91ZM145,26.68V39.39c1.54,0,3.05.09,4.55,0a3.55,3.55,0,0,0,3.38-3,18,18,0,0,0,.46-2.62,9.74,9.74,0,0,0-.65-4.8,3.36,3.36,0,0,0-2.86-2.29C148.22,26.6,146.6,26.68,145,26.68Z"/><path class="cls-1" d="M74.37,36.18a8.24,8.24,0,0,1-3.06,5.51,9.61,9.61,0,0,1-11.4-.38,8.88,8.88,0,0,1-2.72-4.92A14.32,14.32,0,0,1,57.76,28,7.58,7.58,0,0,1,63,23.14a9.44,9.44,0,0,1,8.74,1.38,6.87,6.87,0,0,1,2.64,5l-.46,0c-1,0-2,0-3,0a.64.64,0,0,1-.7-.5,4.55,4.55,0,0,0-7.43-1.73,4,4,0,0,0-.95,1.3,10.13,10.13,0,0,0,0,8.69,4.62,4.62,0,0,0,6.56,1.89,4.35,4.35,0,0,0,1.85-2.54.66.66,0,0,1,.78-.54C72.08,36.2,73.19,36.18,74.37,36.18Z"/><path class="cls-1" d="M104.7,41.22c0,.2,0,.41,0,.61,0,2,0,4.07,0,6.1,0,.5-.16.67-.65.65-.82,0-1.64,0-2.45,0-.49,0-.63-.16-.62-.63,0-3.45,0-6.9,0-10.34,0-2.87,0-5.74,0-8.6,0-.56.17-.74.72-.71.76,0,1.52,0,2.28,0,.47,0,.61.17.59.61a4,4,0,0,0,.12,1.36c.08-.11.18-.2.25-.31a4.15,4.15,0,0,1,3.71-2.08,5.79,5.79,0,0,1,4.85,2,7.17,7.17,0,0,1,1.49,3.75,11.92,11.92,0,0,1-.67,6.2,5.78,5.78,0,0,1-7.16,3.25,3.75,3.75,0,0,1-1.9-1.4l-.39-.5Zm6.51-5.56a6,6,0,0,0-.75-3.14,3,3,0,0,0-5.12-.08,6.32,6.32,0,0,0-.24,6,2.82,2.82,0,0,0,2.53,1.71,3,3,0,0,0,2.92-1.53A5.52,5.52,0,0,0,111.21,35.66Z"/><path class="cls-1" d="M167.17,41.45c-.39.32-.72.66-1.1.92a5.66,5.66,0,0,1-5.93.48A4.2,4.2,0,0,1,158,38.54a6,6,0,0,1,.18-1.12,3.77,3.77,0,0,1,2.95-2.89c1.52-.34,3.07-.55,4.61-.8.93-.14,1.33-.45,1.36-1.12a1.47,1.47,0,0,0-1.3-1.56,2.67,2.67,0,0,0-.48-.08,8,8,0,0,0-1,0,1.79,1.79,0,0,0-1.92,1.51c-.1.36-.25.51-.63.5-1,0-1.93,0-2.89,0-.43,0-.53-.15-.46-.56a5,5,0,0,1,3.56-4.2,11,11,0,0,1,6.32,0,3.45,3.45,0,0,1,2.61,3.19,18.49,18.49,0,0,1,.1,2.23c0,2.37,0,4.75,0,7.13a1.62,1.62,0,0,0,.68,1.51.62.62,0,0,1,.15.52c0,.09-.26.21-.41.21-1.16,0-2.32,0-3.49,0a.75.75,0,0,1-.52-.39A7,7,0,0,1,167.17,41.45Zm0-5.51c-.79.22-1.47.43-2.15.6s-1.25.24-1.85.43a1.75,1.75,0,0,0-1.22,2,1.73,1.73,0,0,0,1.52,1.6,3.17,3.17,0,0,0,3.55-2.4C167.12,37.45,167.1,36.7,167.15,35.94Z"/><path class="cls-1" d="M187.56,45.57l1.21.07a1.93,1.93,0,0,0,1.83-2.57c-1.73-4.74-3.34-9.51-5-14.27-.06-.17-.11-.34-.19-.59h2.89c1.49,0,1.49,0,1.9,1.41l2.52,8.66.2.61c.24-.83.44-1.52.63-2.21.74-2.67,1.49-5.34,2.22-8,.08-.33.22-.48.59-.47,1.21,0,2.42,0,3.73,0-.08.28-.15.5-.22.71Q197.06,37,194.24,45a18.12,18.12,0,0,1-.73,1.7,3.69,3.69,0,0,1-3.21,2.2,13.89,13.89,0,0,1-2.32-.08c-.15,0-.4-.24-.4-.38C187.54,47.53,187.56,46.59,187.56,45.57Z"/><path class="cls-1" d="M138.77,35.61a8.73,8.73,0,0,1-.69,3.61,6.26,6.26,0,0,1-3.69,3.56,8.5,8.5,0,0,1-5.5.19,6.51,6.51,0,0,1-4.67-4.79,9,9,0,0,1,.43-6.33,6.44,6.44,0,0,1,5.4-3.87A7.4,7.4,0,0,1,137,30.17,7.88,7.88,0,0,1,138.77,35.61Zm-3.72-.11a20.46,20.46,0,0,0-.63-2.54A2.89,2.89,0,0,0,131.59,31a3.11,3.11,0,0,0-3.22,1.76,6.27,6.27,0,0,0,0,5.66,3.11,3.11,0,0,0,3.43,1.66,3,3,0,0,0,2.7-2.11A20.34,20.34,0,0,0,135.05,35.5Z"/><path class="cls-1" d="M87.34,45.69l1,.06A2.07,2.07,0,0,0,90.09,45a1.67,1.67,0,0,0,.37-1.75c-1.63-4.6-3.22-9.21-4.82-13.82-.12-.33-.22-.67-.36-1.1,1.36,0,2.63,0,3.9,0,.14,0,.34.33.4.54.89,3,1.76,6,2.63,9A4.22,4.22,0,0,0,92.69,39c0-.15.13-.3.17-.45q1.33-4.8,2.65-9.59c.13-.5.34-.68.86-.66.86,0,1.74,0,2.61,0,.19,0,.39,0,.67.05-.18.56-.34,1.06-.51,1.55-1.73,4.94-3.45,9.89-5.2,14.83A17.59,17.59,0,0,1,93,46.89a3.17,3.17,0,0,1-2.43,1.82,19.54,19.54,0,0,1-2.76.06c-.34,0-.5-.19-.5-.56C87.36,47.4,87.34,46.59,87.34,45.69Z"/><path class="cls-1" d="M123.57,40.32c0,.81,0,1.61,0,2.42,0,.09-.21.26-.32.26a30,30,0,0,1-3.68-.13,2.2,2.2,0,0,1-2-2.51c0-2.88,0-5.77,0-8.65,0-.78,0-.78-.79-.79-1.27,0-1.27,0-1.27-1.26s0-1.36,1.36-1.34c.55,0,.73-.17.71-.72,0-.92,0-1.85,0-2.77,0-.36.11-.53.5-.52.91,0,1.82,0,2.72,0,.4,0,.49.17.49.53,0,1,0,1.95,0,2.93,0,.41.14.56.54.55s.94,0,1.41,0c.3,0,.44.12.43.42q0,.87,0,1.74c0,.32-.11.46-.44.45-.48,0-1,0-1.42,0s-.52.13-.52.51c0,2.59,0,5.18,0,7.78,0,.69.24.94.93,1C122.59,40.28,123,40.29,123.57,40.32Z"/><path class="cls-1" d="M180.24,43v-.67c0-6.2,0-12.41,0-18.62,0-.55.15-.72.7-.7.91.05,1.82,0,2.73,0,.39,0,.54.08.54.51q0,9.47,0,18.94c0,.27,0,.53-.37.53Z"/><path class="cls-1" d="M80.06,30.6c.28-.39.52-.82.83-1.19a3.87,3.87,0,0,1,3.39-1.51c.17,0,.48.19.48.29,0,1.17,0,2.34,0,3.51-.61,0-1.15,0-1.68.08a3.06,3.06,0,0,0-3,3.19c0,2.42,0,4.83,0,7.24,0,.51-.13.71-.67.68-.85,0-1.71,0-2.56,0-.39,0-.55-.11-.54-.52q0-6.78,0-13.55c0-.37.12-.52.5-.51.85,0,1.71,0,2.56,0,.42,0,.53.18.52.56,0,.57,0,1.14,0,1.71Z"/><path class="cls-1" d="M177.47,28.26v.58c0,4.48,0,9,0,13.44,0,.55-.13.73-.69.71-1.07,0-2.14,0-3.23,0V28.26Z"/><path class="cls-1" d="M203.41,15.31a5.18,5.18,0,1,1-5.25,5.14A5.17,5.17,0,0,1,203.41,15.31ZM199,20.46a4.33,4.33,0,1,0,4.34-4.31A4.32,4.32,0,0,0,199,20.46Z"/><path class="cls-1" d="M177.47,22.9c0,1.09,0,2.2,0,3.3a.48.48,0,0,1-.36.33c-1.16,0-2.32,0-3.57,0v-2.3c0-1.44,0-1.44,1.42-1.44l2.34,0A.56.56,0,0,1,177.47,22.9Z"/><path class="cls-1" d="M116.65,59.5c.8.5,1,1,.87,1.68A1.55,1.55,0,0,1,116,62.31c-.45,0-.9,0-1.35,0s-.37-.14-.37-.4c0-1.46,0-2.91,0-4.36,0-.3.12-.43.41-.44a8.66,8.66,0,0,1,1.25,0,1.42,1.42,0,0,1,1.43,1A1.28,1.28,0,0,1,116.65,59.5Zm-1.59.38v1.85c.59,0,1.22.16,1.56-.41a1.17,1.17,0,0,0,0-1C116.29,59.76,115.67,59.85,115.06,59.88Zm0-.58a6.22,6.22,0,0,0,1.17-.19.69.69,0,0,0,.4-.94c-.1-.38-.68-.59-1.25-.54s-.29.42-.32.66S115,58.87,115,59.3Z"/><path class="cls-1" d="M183,62.28h-.68V58.47l.81.33a1.29,1.29,0,0,1,2,.27c.13-.11.25-.24.39-.34a1.2,1.2,0,0,1,2,.66,24.62,24.62,0,0,1,.17,2.88h-.77V60.6c0-.26,0-.51,0-.76a.74.74,0,0,0-.74-.78.83.83,0,0,0-.79.87c0,.67,0,1.35,0,2a2.39,2.39,0,0,1,0,.31h-.71V60.32c0-.15,0-.29,0-.44a.75.75,0,0,0-.64-.82.81.81,0,0,0-.87.73,15.72,15.72,0,0,0-.06,1.68Z"/><path class="cls-1" d="M91.69,62.27H91c0-.71,0-1.39,0-2.08s-.27-1.14-.73-1.14-.84.47-.84,1.19v2c-.72.14-.75.12-.75-.47,0-1,0-2.09,0-3.17.35,0,.7-.21.67.38,1-.72,1.53-.68,2.24.17a2.37,2.37,0,0,1,.23-.3,1.32,1.32,0,0,1,1.36-.3A1.14,1.14,0,0,1,94,59.59c.06.88,0,1.77,0,2.68H93.3v-1.8c0-.23,0-.47-.06-.7a.72.72,0,0,0-.75-.71.85.85,0,0,0-.79.88C91.68,60.7,91.69,61.46,91.69,62.27Z"/><path class="cls-1" d="M104.92,57a2.42,2.42,0,0,1,2.34,2.66,2.51,2.51,0,0,1-2.48,2.73,2.46,2.46,0,0,1-2.32-2.7A2.49,2.49,0,0,1,104.92,57Zm-1.78,2.65a8.15,8.15,0,0,0,.45,1.37,1.45,1.45,0,0,0,2.49.08,2.72,2.72,0,0,0,0-2.83,1.42,1.42,0,0,0-2.41,0A6.87,6.87,0,0,0,103.14,59.66Z"/><path class="cls-1" d="M81.12,59.19c0-.56,0-1.1,0-1.64,0-.29,0-.49.41-.48s.37.18.37.45c0,1.47,0,2.94,0,4.41a2.38,2.38,0,0,1,0,.34h-.71V59.94H78.74v2.32H78A2.23,2.23,0,0,1,78,61.9c0-1.45,0-2.9,0-4.35,0-.3,0-.49.41-.48s.37.19.36.45v1.67Z"/><path class="cls-1" d="M158.81,57.08c.85,0,1.68,0,2.51,0,.1,0,.28.21.26.29s-.18.31-.29.32c-.58,0-1.15,0-1.76,0v1.54h1.55c.25,0,.48,0,.4.34a.53.53,0,0,1-.39.29c-.5,0-1,0-1.56,0v1.8h1.72c.22,0,.51-.08.51.31s-.29.3-.51.3h-2.44Z"/><path class="cls-1" d="M66.73,62.25c-.76.1-.76.1-.76-.56,0-1.59,0-3.18,0-4.82h.75V59c.21-.15.32-.24.44-.31a1.26,1.26,0,0,1,2,.86,27.16,27.16,0,0,1,.14,2.74h-.8v-2c0-.79-.27-1.2-.79-1.22s-.94.46-.94,1.22Z"/><path class="cls-1" d="M139.41,56.85h.67V59c.21-.14.33-.24.47-.32a1.24,1.24,0,0,1,1.92.79,21.76,21.76,0,0,1,.16,2.83h-.81c0-.71,0-1.39,0-2.08s-.28-1.15-.79-1.14-.93.49-.94,1.19v2h-.68Z"/><path class="cls-1" d="M130.82,56.85h.73V60l.12.06,1-1.12c.38-.45.43-.46,1.13-.3l-1.35,1.47L134,62.24c-.53.12-.89.11-1.17-.37a13.09,13.09,0,0,0-.93-1.3c-.57.49-.14,1.14-.36,1.65-.66.18-.71.14-.71-.53C130.81,60.1,130.82,58.51,130.82,56.85Z"/><path class="cls-1" d="M178.92,58.46a1.8,1.8,0,0,1,1.8,2,1.91,1.91,0,0,1-1.89,2,2,2,0,0,1,.09-3.94Zm1.1,2c-.06-.87-.5-1.44-1.16-1.42s-1.05.54-1.06,1.32.39,1.44,1,1.4a1.38,1.38,0,0,0,.86-.42A2.66,2.66,0,0,0,180,60.46Z"/><path class="cls-1" d="M169,58.46a1.78,1.78,0,0,1,1.8,1.95,1.87,1.87,0,0,1-1.86,2,2,2,0,0,1,.06-3.94Zm-1.12,1.88a4.14,4.14,0,0,0,.08.61,1,1,0,0,0,1,.84,1,1,0,0,0,1-.83,2.91,2.91,0,0,0,0-1.21A.89.89,0,0,0,169,59a1,1,0,0,0-1,.64A4.16,4.16,0,0,0,167.84,60.34Z"/><path class="cls-1" d="M123.32,58.46a1.81,1.81,0,0,1,1.82,1.95,1.92,1.92,0,0,1-1.88,2,2,2,0,0,1,.06-3.94Zm1.12,2a6.52,6.52,0,0,0-.26-.87,1,1,0,0,0-1.69-.15,1.78,1.78,0,0,0,0,2,1,1,0,0,0,1.53,0A5.25,5.25,0,0,0,124.44,60.47Z"/><path class="cls-1" d="M87.11,60.41a1.88,1.88,0,0,1-1.86,2,2,2,0,0,1,.07-3.94A1.78,1.78,0,0,1,87.11,60.41Zm-.7,0a4.6,4.6,0,0,0-.26-.86,1,1,0,0,0-1.7-.08,1.78,1.78,0,0,0,0,1.85,1,1,0,0,0,1.66,0A4.69,4.69,0,0,0,86.41,60.42Z"/><path class="cls-1" d="M98.75,60.58H96.3c-.09,1.05.57,1.38,2.16,1.09.12.23.24.47-.14.58a2.25,2.25,0,0,1-2.26-.33,2,2,0,0,1-.46-2.16,1.71,1.71,0,0,1,2-1.27A1.67,1.67,0,0,1,98.75,60.58ZM98.08,60c-.09-.73-.34-1-.91-1a.87.87,0,0,0-.85,1Z"/><path class="cls-1" d="M152.08,62.28h-.71V58.59c.33-.12.61-.14.69.31a3.91,3.91,0,0,1,.77-.38,1.32,1.32,0,0,1,1.72,1.17,3,3,0,0,1,0,.6v2h-.77c0-.7,0-1.38,0-2.07s-.28-1.15-.78-1.15-.94.48-.95,1.18Z"/><path class="cls-1" d="M74,60.56H71.45c.15,1.16.61,1.38,2.36,1.1-.07.22-.06.47-.17.54a2,2,0,0,1-2.84-1.11,2,2,0,0,1,1.6-2.62C73.53,58.43,74.2,59.29,74,60.56ZM73.33,60c-.15-.79-.43-1-1-1a.83.83,0,0,0-.72,1Z"/><path class="cls-1" d="M173.07,62.27h-.73V58.46l.84.38.23-.17a1.33,1.33,0,0,1,2.08,1c.06.83,0,1.67,0,2.54h-.73V61c0-.38,0-.77,0-1.15a.77.77,0,0,0-.76-.82.9.9,0,0,0-.91.84C173.05,60.68,173.07,61.46,173.07,62.27Z"/><path class="cls-1" d="M144.58,59.24c-.23-.3-.2-.48.12-.62a1.54,1.54,0,0,1,2.36,1.52v2.23l-.84-.3a4.87,4.87,0,0,1-.82.3,1.1,1.1,0,0,1-1.24-.74,1.14,1.14,0,0,1,.62-1.41,10.77,10.77,0,0,1,1.46-.42C146.31,59,145.79,58.82,144.58,59.24Zm1.7,1.23c-.54,0-1.05-.06-1.33.44a.75.75,0,0,0,.09.72,1,1,0,0,0,.83.07C146.38,61.48,146.38,61,146.28,60.47Z"/><path class="cls-1" d="M192.39,58.6c-.63,1.48-1.19,2.9-1.83,4.29a1.71,1.71,0,0,1-1.36,1l-.16-.54a4.18,4.18,0,0,0,.49-.31,1.09,1.09,0,0,0,.46-1.56l-1.15-2.89c.52-.2.8-.12,1,.42.23.73.53,1.44.84,2.27l.75-2.24C191.59,58.49,191.59,58.49,192.39,58.6Z"/><path class="cls-1" d="M63.27,62.28h-.78V57.74H61c-.14-.45-.1-.69.42-.67,1,0,1.92,0,2.88,0,.55,0,.56,0,.42.65H63.27Z"/><path class="cls-1" d="M108.41,58.58c.52,0,.55-.3.59-.65a1.32,1.32,0,0,1,1.43-1.2c.39,0,.57.18.39.59-1,.14-1.12.25-1.11,1.16l.85.09,0,.52-.91.08v3.11H109c0-.85,0-1.67,0-2.5,0-.28.11-.65-.38-.69C108.51,59.08,108.47,58.79,108.41,58.58Z"/><path class="cls-1" d="M129.38,58.67l-.15.51c-.74-.18-1.46-.28-1.88.5a1.47,1.47,0,0,0,.1,1.64c.46.62,1.12.45,1.76.33.22.36.17.57-.29.67a2,2,0,0,1-2.21-.75,2.25,2.25,0,0,1,.17-2.45A2.16,2.16,0,0,1,129.38,58.67Z"/><path class="cls-1" d="M137.74,61.65c.26.4.13.58-.28.66a2,2,0,0,1-2.24-.78,2.16,2.16,0,0,1,.26-2.48,2,2,0,0,1,2.42-.35l-.13.48c-.74-.18-1.47-.29-1.89.49a1.47,1.47,0,0,0,.09,1.64C136.44,61.93,137.09,61.78,137.74,61.65Z"/><path class="cls-1" d="M165.75,61.65c.26.4.13.57-.28.66a2,2,0,0,1-2.24-.78,2.16,2.16,0,0,1,.26-2.48,2,2,0,0,1,2.4-.36.75.75,0,0,1,0,.15c0,.1-.07.2-.12.33-.72-.17-1.45-.28-1.87.5a1.45,1.45,0,0,0,.08,1.64C164.45,61.93,165.1,61.78,165.75,61.65Z"/><path class="cls-1" d="M119.87,62.28h-.69V56.86h.69Z"/><path class="cls-1" d="M51.91,9.94a2,2,0,0,1-4,0,2,2,0,0,1,4,0Zm-2.07,1.64A1.62,1.62,0,1,0,50,8.34a1.64,1.64,0,0,0-1.69,1.57A1.63,1.63,0,0,0,49.84,11.58Z"/><path class="cls-1" d="M149.54,62.28h-.69v-3.7h.69Z"/><path class="cls-1" d="M149.18,58.17c-.21-.3-.42-.49-.4-.63s.27-.31.42-.45c.15.15.39.29.41.45S149.4,57.87,149.18,58.17Z"/><path d="M49.84,11.58a1.63,1.63,0,0,1-1.58-1.67,1.65,1.65,0,0,1,3.29.13A1.63,1.63,0,0,1,49.84,11.58Zm.48-1.32a1.68,1.68,0,0,0,.3-.37c.18-.36.11-.74-.29-.84a2,2,0,0,0-1,.06,16.65,16.65,0,0,0,0,2h.21l.18-1,.95,1,.14-.12Z"/><path class="cls-1" d="M204.28,21.12l1.36,2.28c-.5.23-.83.17-1.07-.26s-.59-.92-.83-1.41-.69-.6-1.28-.45v1.77c0,.26,0,.48-.37.48s-.38-.19-.38-.46c0-1.59,0-3.19,0-4.78,0-.14.23-.4.36-.4a10,10,0,0,1,1.9,0,1.44,1.44,0,0,1,1.4,1.3,1.61,1.61,0,0,1-.91,1.8A1,1,0,0,0,204.28,21.12Zm-1.82-2.6c0,.63,0,1.16,0,1.7a.43.43,0,0,0,.28.28,6.07,6.07,0,0,0,1.13,0,.81.81,0,0,0,.73-.92.8.8,0,0,0-.7-.93C203.46,18.55,203,18.55,202.46,18.52Z"/><path class="cls-1" d="M50.32,10.26l.44.78-.14.12-.95-1-.18,1h-.21a16.65,16.65,0,0,1,0-2,2,2,0,0,1,1-.06c.4.1.47.48.29.84A1.68,1.68,0,0,1,50.32,10.26ZM49.61,10a5.26,5.26,0,0,0,.71-.28s0-.31,0-.33a4.42,4.42,0,0,0-.7-.23Z"/><path d="M49.61,10V9.2a4.42,4.42,0,0,1,.7.23s.06.3,0,.33A5.26,5.26,0,0,1,49.61,10Z"/></svg>