<svg id="Layer_1" data-name="Layer 1" xmlns="http://www.w3.org/2000/svg" viewBox="0 0 293.05 69.62"><defs><style>.cls-1{fill:#fff;}</style></defs><path class="cls-1" d="M2.2,53.83c1.39-2,2.81-4,4.19-6.08Q14.82,35.28,23.23,22.8a1.33,1.33,0,0,1,1.31-.7c1.39,0,2.8.06,4.2,0,.74,0,.89.21.88.9,0,5.42,0,10.84,0,16.25V40c.43-.06.5-.41.65-.64q5.55-8.22,11.08-16.47a1.42,1.42,0,0,1,1.37-.75c1.37.06,2.74.06,4.1,0,.74,0,1,.15,1,.92-.05,3.14,0,6.27,0,9.41,0,6.9,0,13.81,0,20.72,0,.76-.21.94-1,.92-1.72,0-3.44-.06-5.15,0-.75,0-.88-.22-.87-.9,0-5.39,0-10.77,0-16.16V35.8l-3.34,5Q33.3,47.11,29.13,53.4a1.24,1.24,0,0,1-1.22.67c-1.49,0-3,0-4.48,0-.66,0-.78-.21-.78-.81,0-5.67,0-11.34,0-17-.33-.08-.35.21-.45.36Q16.6,45,11,53.36a1.33,1.33,0,0,1-1.29.71c-2.52,0-5,0-7.54,0Z"/><path class="cls-1" d="M59.69,55c-.44-.38-1-.23-1.5-.33a8.62,8.62,0,0,1-7.26-7.3A15,15,0,0,1,62.38,30.51a9.94,9.94,0,0,1,5.81.35A5.76,5.76,0,0,1,71,33.28c.09-.05.13-.06.13-.08.16-.71.08-1.72.52-2S73.1,31,73.86,31H78.3c-.5,2.75-1,5.42-1.48,8.09-.86,4.66-1.75,9.32-2.59,14-.12.69-.32.95-1.07.92-1.68-.06-3.37-.06-5,0-.79,0-.94-.23-.76-.91a2,2,0,0,0,.1-1.22,9.51,9.51,0,0,1-4.64,2.66,10.36,10.36,0,0,0-2.35.43Zm3-6.59a7.18,7.18,0,0,0,6.75-6.12c.46-3.55-2.13-6-5.69-5.41A7.14,7.14,0,0,0,57.89,43,4.52,4.52,0,0,0,62.67,48.38Z"/><path class="cls-1" d="M204.67,55c-.06-.25-.29-.19-.46-.22-4.74-.87-7.25-4.28-7.45-8.79a14.93,14.93,0,0,1,11.87-15.41,10,10,0,0,1,5.09.23,5.71,5.71,0,0,1,3.3,2.71c.07-.26.12-.4.16-.54.4-1.74.4-1.74,2.25-1.74h4.93c-.6,3.17-1.17,6.27-1.76,9.37-.81,4.26-1.64,8.51-2.42,12.77-.1.56-.3.72-.85.71-1.81,0-3.62,0-5.44,0-.59,0-.71-.2-.59-.72a2.32,2.32,0,0,0,.13-1.47l.13,0,0-.08-.14.07a9.19,9.19,0,0,1-5.89,2.91c-.07,0-.14.11-.2.16Zm3.8-6.58a7.31,7.31,0,0,0,6.9-6.53,4.58,4.58,0,0,0-5.56-5,7.15,7.15,0,0,0-6,5.85A4.53,4.53,0,0,0,208.47,48.39Z"/><path class="cls-1" d="M125.4,55c-.38-.38-.88-.18-1.32-.26-5.62-1-8.93-5.36-8.4-11.13.62-6.81,7.25-13.11,14.12-13.31s10.95,4.81,10.42,11.24c-.06.78-.24,1.56-.35,2.34s-.4.92-1.14.91c-5.15,0-10.3,0-15.46,0-1,0-1,.31-.82,1.09.62,2.52,3.21,3.8,6.07,3A5.69,5.69,0,0,0,131,47.3a1.34,1.34,0,0,1,1.07-.48c2.1,0,4.2,0,6.48,0a17.88,17.88,0,0,1-3.28,4,13.83,13.83,0,0,1-9.23,4c-.13,0-.24,0-.29.17Zm-1.92-15.06c.06,0,.11.06.16.06h9.07c1.12,0,1.17-.06.82-1.09a3.77,3.77,0,0,0-2.54-2.5C128.05,35.45,124.23,37.24,123.48,39.91Z"/><path class="cls-1" d="M249.75,55c-.41-.38-.95-.19-1.42-.28-5.4-1-8.56-4.81-8.42-10.27.2-7.92,7.72-14.71,15.64-14.13,5.25.38,8.92,3.9,9.36,8.92.06.69-.14.8-.75.79-1.84,0-3.69,0-5.54,0-.35,0-.68,0-.82-.43-.84-2.81-3.93-3.18-6.06-2.56a7.17,7.17,0,0,0-4.64,8.25,4.18,4.18,0,0,0,4,3.06,6.23,6.23,0,0,0,5.39-2.51,1.36,1.36,0,0,1,1.19-.57c1.85,0,3.69,0,5.54,0,.76,0,.79.23.48.8-2.74,5.09-6.83,8.22-12.73,8.75-.17,0-.39-.06-.47.19Z"/><path class="cls-1" d="M185.31,40.07l11.87-17.76c-1.18-.27-2.28,0-3.61-.21l2.35-1.43c3.41-2.08,6.84-4.14,10.23-6.26.7-.44.84-.26,1,.43.52,2.18,1.09,4.36,1.66,6.53.16.59.1.95-.61.81-2.06-.42-3.12.64-4.2,2.28-6.28,9.52-12.7,18.95-19,28.44a2.15,2.15,0,0,1-2.21,1.18,24.3,24.3,0,0,0-3.62,0c-.78,0-1-.17-1-1,0-5.32,0-10.64,0-16v-.93c-.41.15-.51.5-.68.76Q172,45.13,166.54,53.31a1.49,1.49,0,0,1-1.46.76c-1.47,0-2.93,0-4.4,0-.5,0-.72-.08-.72-.66q0-15.3,0-30.6c0-.53.14-.71.69-.7,1.85,0,3.7,0,5.54,0,.8,0,.77.38.77.93q0,7.93,0,15.88a2,2,0,0,0,.16,1.14c.66-1,1.26-1.87,1.87-2.78,3.22-4.82,6.45-9.63,9.64-14.47a1.32,1.32,0,0,1,1.31-.69c1.4,0,2.8.06,4.2,0,.82,0,1,.26,1,1,0,5.35,0,10.71,0,16.06V40Z"/><path class="cls-1" d="M275.31,33.37c2.71-3.27,6-3.73,9.61-2.53a5.54,5.54,0,0,1,3.81,5.37,42.25,42.25,0,0,1-1.16,8.15c-.52,3-1.13,5.9-1.65,8.86-.1.58-.27.8-.88.79-1.79,0-3.57-.06-5.35,0-.78,0-.81-.3-.69-.9.73-3.85,1.44-7.71,2.16-11.56a7.48,7.48,0,0,0,.15-2.36,2.58,2.58,0,0,0-2.71-2.49,4.17,4.17,0,0,0-4.51,3.3c-.6,2.29-1,4.64-1.42,7-.4,2.11-.8,4.23-1.17,6.34-.1.54-.33.71-.89.7-1.72,0-3.44,0-5.15,0-.73,0-1-.1-.82-.91,1-5.25,2-10.5,3-15.75q1.29-6.9,2.57-13.8c.27-1.43.25-1.44,1.76-1.44s2.93.06,4.39,0c.93-.05,1.05.26.89,1.07C276.57,26.48,276,29.81,275.31,33.37Z"/><path class="cls-1" d="M102.37,43.06c-.68,3.55-1.34,6.92-1.94,10.29-.1.56-.28.73-.84.72-1.78,0-3.57-.06-5.35,0-.77,0-.87-.19-.74-.89,1.07-5.65,2.1-11.31,3.14-17,.81-4.38,1.63-8.76,2.4-13.15.12-.71.34-1,1.12-1,1.72.07,3.44.08,5.16,0,.86,0,.9.3.77,1-.82,4.22-1.61,8.44-2.41,12.67-.23,1.17-.43,2.35-.69,3.77l4.47-4.64,3.15-3.3c.2-.2.36-.45.7-.45h7.92l-5.44,5.21c-1.57,1.48-3.12,3-4.72,4.43-.43.4-.32.71-.11,1.14q2.69,5.59,5.33,11.21c.14.28.25.56.42.95h-7.49c-.56,0-.53-.49-.66-.8-1.3-3.15-2.57-6.31-3.85-9.47C102.63,43.59,102.53,43.41,102.37,43.06Z"/><path class="cls-1" d="M229.43,54c-.89,0-1.78,0-2.67,0-.61,0-.77-.14-.65-.75.68-3.47,1.33-7,2-10.43.37-2,.72-4,1.12-6,.09-.45,0-.56-.44-.55-.76,0-1.53,0-2.29,0-.42,0-.55-.11-.46-.55.29-1.39.56-2.79.8-4.19a.54.54,0,0,1,.56-.52c3-.26,4.32-2,4.7-4.81.25-1.9.35-1.89,2.28-1.89,1.18,0,2.36,0,3.53,0,.46,0,.6.07.5.57-.37,1.8-.67,3.61-1,5.41-.11.56,0,.81.63.78,1-.05,2,0,3,0,.47,0,.61.12.52.6-.27,1.33-.51,2.67-.72,4-.08.48-.3.62-.77.61-.95,0-1.91,0-2.86,0-.73,0-1,.22-1.09.9-1,5.22-2,10.43-2.9,15.65-.15.84-.34,1.31-1.34,1.17A17.15,17.15,0,0,0,229.43,54Z"/><path class="cls-1" d="M141.83,36.31c.33-1.62.66-3.17,1-4.72.09-.45.37-.5.74-.56,2.82-.44,3.94-1.56,4.43-4.39.4-2.28.4-2.28,2.74-2.28h3.76c-.37,2-.7,4-1.1,5.95-.13.64,0,.85.66.81,1-.05,1.91,0,2.87,0,.5,0,.68.11.56.64-.28,1.27-.53,2.54-.75,3.82-.09.55-.28.81-.9.77-1-.07-2,0-3,0-.6,0-.76.22-.85.72-1,5.19-1.94,10.38-2.9,15.57-.26,1.41-.24,1.41-1.68,1.41s-3.12,0-4.67,0c-.75,0-.83-.25-.71-.87q1.49-7.78,2.94-15.56c.05-.25.07-.5.14-.74.13-.45-.08-.54-.48-.54C143.72,36.32,142.8,36.31,141.83,36.31Z"/><path class="cls-1" d="M88.09,33.14c.62-.09.75-.46,1-.7a7.37,7.37,0,0,1,5-2.18c.51,0,.58.11.49.57-.38,1.93-.75,3.85-1,5.78-.09.54-.29.66-.79.67a10.94,10.94,0,0,0-1.89.21,4.07,4.07,0,0,0-3.49,3.41c-.77,4-1.54,8-2.28,12-.14.79-.33,1.24-1.33,1.17-1.68-.12-3.37-.06-5.06,0-.63,0-.86,0-.71-.81Q80.06,42.52,82,31.75c.1-.51.31-.66.82-.65,1.65,0,3.31,0,5,0,.65,0,.88.17.69.79A3.29,3.29,0,0,1,88.09,33.14Z"/><path class="cls-1" d="M213.44,51.9l.14-.07,0,.08-.13,0Z"/></svg>