<svg xmlns="http://www.w3.org/2000/svg" viewBox="0 0 321.46 54.34"><defs><style>.a{fill:#fff;}.b{fill:#663406;}.c{fill:#d0874f;}.d{fill:#fbd88d;}.e{fill:#653203;}</style></defs><path class="a" d="M317.89,33c-.39.1-.27.47-.34.71a9.06,9.06,0,0,1-12.47,5.86l-.86-.37V45c0,2-.41,2.37-2.38,2.39-1,0-2.06,0-3.08,0-1.66,0-2.1-.46-2.11-2.15,0-2.86,0-5.73,0-8.59,0-4,0-7.94,0-11.92a1.32,1.32,0,0,1,.72-1.38,18.52,18.52,0,0,1,14.78-1.5,7.62,7.62,0,0,1,5.52,6.31c0,.19,0,.42.24.51ZM310.2,31c0-3.77-1.72-5.31-5-4.81-.69.11-1.07.33-1,1.16.07,1.63,0,3.27,0,4.9s.59,2.52,2,2.82a2.88,2.88,0,0,0,3.53-1.7A5.83,5.83,0,0,0,310.2,31Z"/><path class="b" d="M21.5,50.74a40.32,40.32,0,0,0-4.62-1c-4.78-1.23-9.19-3.12-12.54-6.88a11.3,11.3,0,0,1-3.11-8,40.36,40.36,0,0,1,.13-4.54c.46-3.43,2.44-6,5.06-8.14A14,14,0,0,1,10,19.84a1.88,1.88,0,0,0,1.34-2.65c-.59-2.38-1-4.81-1.41-7.23a6.27,6.27,0,0,1,2.47-6.63,6.09,6.09,0,0,1,6.63-.62,6.24,6.24,0,0,1,3.67,6.05c0,2.21,0,4.43,0,6.64,0,.83.24,1,1,1a25,25,0,0,1,3.46,0c.73,0,.91-.21.89-.9,0-2.25,0-4.5,0-6.76A6.44,6.44,0,1,1,40.83,9.89c-.47,2.62-.95,5.23-1.48,7.84-.19.88-.07,1.37.86,1.78a18.24,18.24,0,0,1,6.49,4.78,11.35,11.35,0,0,1,3,8,32.75,32.75,0,0,1-.12,4.54c-.74,4.32-3.48,7.22-7,9.48a29.89,29.89,0,0,1-12.63,4.21c-.26,0-.6-.12-.75.25ZM3.26,33.08a15,15,0,0,0,.1,3.67c.66,3.31,2.75,5.6,5.43,7.43a27.52,27.52,0,0,0,13.77,4.47c6.57.5,12.9-.45,18.64-3.86,4.4-2.62,7.12-6.27,6.45-11.7.37-3.82-1.27-6.75-4.1-9.12a19.93,19.93,0,0,0-5.82-3.41c-.66-.25-.82-.56-.68-1.27.64-3.24,1.07-6.53,1.86-9.74A4.67,4.67,0,0,0,34.85,4a4.44,4.44,0,0,0-4.73,4.66c0,2.91,0,5.82,0,8.73,0,.81-.16,1.23-1.09,1.1a26,26,0,0,0-7.26,0c-.83.11-1.06-.19-1.05-1q.06-4.42,0-8.84a4.48,4.48,0,1,0-8.83.86c.6,3.21,1.19,6.43,1.84,9.63.17.81,0,1.22-.8,1.49a17.36,17.36,0,0,0-4.23,2.25C5.23,25.4,2.85,28.51,3.26,33.08Z"/><path class="a" d="M60.31,26.8c0-3.61,0-7.21,0-10.81,0-1.14.41-2,1.63-2,4.36-.05,8.75-.44,13.06.28,5,.84,7.39,4.22,7,9.45-.39,4.81-3,7.45-8,7.84-1.68.13-3.37.12-5.06.09-.78,0-1,.23-1,1,0,1.72,0,3.44,0,5.16,0,1.43-.49,1.9-1.94,1.93-1.27,0-2.55,0-3.83,0s-1.9-.49-1.9-2C60.3,34.08,60.31,30.44,60.31,26.8Zm7.68-4v.37c0,3.06,0,3.06,3.09,3,2.12-.07,3.2-1.2,3.2-3.36s-1-3.22-3.09-3.32c-.37,0-.74,0-1.11,0-2.09,0-2.09,0-2.09,2Z"/><path class="a" d="M230.88,40.24a22.38,22.38,0,0,1-8-1.32,11.47,11.47,0,0,1-1.77-.84c-1.41-.83-1.47-1.09-.59-2.49.57-.9,1-2.07,1.83-2.57s1.79.63,2.73.93a14.39,14.39,0,0,0,6.06.81c1.08-.12,2-.45,2.3-1.68A2.23,2.23,0,0,0,232,30.52c-2.28-1.22-4.81-1.89-7-3.2-3.49-2-4.73-4.76-3.77-8.43A6.75,6.75,0,0,1,226.3,14a18.32,18.32,0,0,1,12.19.71,10.16,10.16,0,0,1,1.49.87,1,1,0,0,1,.33,1.66c-.54.82-1.08,1.64-1.56,2.5s-.93.85-1.69.38a9.11,9.11,0,0,0-6.27-1.22c-1,.16-1.94.53-2.12,1.72a2.31,2.31,0,0,0,1.43,2.6c1.44.67,2.93,1.25,4.42,1.84a27,27,0,0,1,3.19,1.57,6.7,6.7,0,0,1,3.48,6.81,6.68,6.68,0,0,1-4.73,6A14.69,14.69,0,0,1,230.88,40.24Z"/><path class="a" d="M183.35,28.16c1.39-1.79,2.84-3.54,4.15-5.39a2.75,2.75,0,0,1,2.69-1.3c1.48.09,3,0,4.44,0,.51,0,1.13-.17,1.38.5s-.22,1-.57,1.4c-1.81,2.07-3.61,4.14-5.46,6.17-.52.58-.61.94,0,1.58,2,2.21,3.85,4.48,5.76,6.73.34.4.78.8.48,1.41s-.84.39-1.31.4c-1.69,0-3.38,0-5.07,0a2.08,2.08,0,0,1-1.94-1c-1.48-2.06-3-4.08-4.76-6.1v4.43c0,2.26-.38,2.64-2.64,2.64-1,0-2.06,0-3.09,0-1.54,0-2-.46-2-2,0-3.56,0-7.12,0-10.68s0-7.21,0-10.81c0-1.78.46-2.25,2.25-2.3q1.55,0,3.09,0c1.85,0,2.36.52,2.37,2.35,0,3.56,0,7.12,0,10.68V28.1Z"/><path class="a" d="M261.68,30.82c.69-2.83,1.32-5.29,1.86-7.76.24-1.14.71-1.7,2-1.59a39.47,39.47,0,0,0,4.07,0c.84,0,1.12.29.86,1.12q-2.47,8.07-4.9,16.17a1.17,1.17,0,0,1-1.28.91c-1.15,0-2.3,0-3.45,0a1.46,1.46,0,0,1-1.62-1.16c-.67-1.88-1.39-3.75-2.07-5.63a1.43,1.43,0,0,0-.45-.78c-.78,2.11-1.58,4.19-2.29,6.3a1.58,1.58,0,0,1-1.8,1.27c-1.1-.07-2.22,0-3.33,0a1.2,1.2,0,0,1-1.32-1q-2.38-8-4.83-16.07c-.25-.84,0-1.14.85-1.13,1.49,0,3,0,4.45,0a1.29,1.29,0,0,1,1.52,1.2A74.62,74.62,0,0,0,252,30.39c.69-1.8,1.35-3.61,2.07-5.4.26-.66.22-1.64,1.08-1.78a8.62,8.62,0,0,1,3.43,0c.47.12.57.67.72,1.09C260.06,26.39,260.81,28.46,261.68,30.82Z"/><path class="a" d="M286.73,38a8.8,8.8,0,0,1-6.37,2.26c-4.58,0-7.57-2.76-7.94-7.32-.56-6.92,3.81-11.73,10.79-12a18.82,18.82,0,0,1,9.09,1.75,1.7,1.7,0,0,1,1.13,1.76q-.09,6.81,0,13.63c0,1.16-.36,1.67-1.56,1.59a17.23,17.23,0,0,0-2.59,0C288,39.81,286.94,39.65,286.73,38Zm-.47-8.14h0c0-.94,0-1.89,0-2.83a.69.69,0,0,0-.56-.79A4.33,4.33,0,0,0,281,27.8a6.3,6.3,0,0,0-.67,5.53c.44,1.45,1.76,2,3.65,1.69a2.5,2.5,0,0,0,2.27-2.6C286.28,31.57,286.26,30.71,286.26,29.85Z"/><path class="a" d="M165.44,38.08a9.65,9.65,0,0,1-10.37,1.28c-3-1.33-4.51-5.17-4-9.19.71-5.11,3.89-8.25,9.51-9.06a17.06,17.06,0,0,1,10.64,1.78,1.28,1.28,0,0,1,.82,1.3c0,4.71,0,9.42,0,14.12,0,1-.34,1.43-1.35,1.39a26.9,26.9,0,0,0-2.84,0C166.67,39.79,165.66,39.63,165.44,38.08Zm-.52-8.16h0c0-.94,0-1.88,0-2.82a.77.77,0,0,0-.62-.89,4.34,4.34,0,0,0-4.83,1.84,6.56,6.56,0,0,0-.48,5.34c.43,1.34,1.78,1.91,3.58,1.65a2.42,2.42,0,0,0,2.3-2.42C165,31.72,164.92,30.82,164.92,29.92Z"/><path class="a" d="M104.11,31.32c0,2.33,0,4.66,0,7,0,1-.36,1.43-1.36,1.39s-1.9,0-2.84,0-2,.1-2.33-1.21c-.14-.52-.44-.24-.72,0-2.37,1.91-5.15,2.11-8,1.55-3.21-.64-5-2.84-5.59-6C82,27.12,86.08,21.66,93.16,21a17.65,17.65,0,0,1,10.16,1.86,1.27,1.27,0,0,1,.81,1.31C104.08,26.57,104.11,28.94,104.11,31.32ZM97,29.88a20,20,0,0,1,0-2.45c.12-1-.41-1.25-1.27-1.31-1.84-.12-3.39.4-4.24,2.09a5.83,5.83,0,0,0,0,5.85c.59,1,2.18,1.31,3.6.91A2.45,2.45,0,0,0,97,32.45C97,31.59,97,30.74,97,29.88Z"/><path class="a" d="M113.77,23.15a10.42,10.42,0,0,1,8.94-1.91,5.64,5.64,0,0,1,4.59,5.65c.09,3.68,0,7.37,0,11a1.55,1.55,0,0,1-1.75,1.74c-1.31,0-2.63,0-4,0-1.51,0-2-.52-2-2,0-3.07,0-6.14,0-9.21,0-1.68-.55-2.3-2-2.32-1.62,0-2.49.75-2.5,2.35,0,3,0,5.89,0,8.84,0,1.93-.45,2.36-2.42,2.36-1.11,0-2.22,0-3.33,0-1.42,0-1.94-.46-2-1.81,0-5.07,0-10.15,0-15.23,0-.74.34-1.15,1.11-1.15,1.36,0,2.71,0,4.07,0C113.62,21.48,113.69,22.25,113.77,23.15Z"/><path class="a" d="M210.8,32.23c-1.77,0-3.54.05-5.31,0-1,0-1,.43-.78,1.11a2.91,2.91,0,0,0,2.23,1.92,9.55,9.55,0,0,0,6.85-.61c1-.54,1.59-.33,2,.69a6.11,6.11,0,0,0,.38.77c1,2,1.05,2.21-1,3-4.91,1.78-9.87,2.11-14.39-1-3.59-2.44-4-6.21-3.19-10.12.77-3.71,3.22-5.9,6.91-6.66a15,15,0,0,1,8.15.41c4.26,1.53,5.61,5.31,5.52,8.81,0,1.19-.74,1.74-1.94,1.73C214.42,32.21,212.61,32.23,210.8,32.23Zm-2.94-3.79c.9,0,1.81,0,2.71,0,.72,0,.83-.25.66-.88a2.89,2.89,0,0,0-2.94-2.15c-1.78-.09-3.14.61-3.56,1.84-.24.7-.33,1.3.78,1.19A23,23,0,0,1,207.86,28.44Z"/><path class="a" d="M141.15,40.24c-3.42,0-6.39-.43-8.73-2.63-2.94-2.75-3.22-6.28-2.29-9.88s3.73-5.71,7.37-6.43a15.64,15.64,0,0,1,9.22.64,13.81,13.81,0,0,1,1.52.8,1,1,0,0,1,.43,1.71A26.77,26.77,0,0,0,147.2,27c-.39.77-.88.74-1.49.34a7,7,0,0,0-4.68-1.2,3.68,3.68,0,0,0-3.36,2.64c-.51,1.8-.56,3.63.8,5.09s3.33,1.4,5.19,1a7.9,7.9,0,0,0,2.46-1.1.8.8,0,0,1,1.31.34c.49.9,1,1.78,1.55,2.64s.27,1.26-.48,1.69A14,14,0,0,1,141.15,40.24Z"/><path class="c" d="M3.26,33.08c-.41-4.57,2-7.68,5.47-10.17A17.36,17.36,0,0,1,13,20.66c.77-.27,1-.68.8-1.49-.65-3.2-1.24-6.42-1.84-9.63a4.48,4.48,0,1,1,8.83-.86q0,4.41,0,8.84c0,.81.22,1.11,1.05,1a26,26,0,0,1,7.26,0c.93.13,1.1-.29,1.09-1.1,0-2.91,0-5.82,0-8.73A4.44,4.44,0,0,1,34.85,4a4.67,4.67,0,0,1,4.06,5.52c-.79,3.21-1.22,6.5-1.86,9.74-.14.71,0,1,.68,1.27A19.93,19.93,0,0,1,43.55,24c2.83,2.37,4.47,5.3,4.1,9.12-.83,3.76-3.25,6.3-6.45,8.25a29.87,29.87,0,0,1-14,3.95,32,32,0,0,1-13.88-2.17C8.59,41.21,4.56,38.48,3.26,33.08Zm16-2.12a4.45,4.45,0,0,0-.94-3,1.89,1.89,0,0,0-3.14,0,5,5,0,0,0,0,5.71,1.89,1.89,0,0,0,3.27-.2A4.33,4.33,0,0,0,19.29,31Zm17.05-.09a4.4,4.4,0,0,0-1-2.95,1.89,1.89,0,0,0-3.07,0,4.94,4.94,0,0,0,.13,5.9,1.89,1.89,0,0,0,3.13-.3A4.37,4.37,0,0,0,36.34,30.87Z"/><path class="d" d="M3.26,33.08c1.3,5.4,5.33,8.13,10.1,10a32,32,0,0,0,13.88,2.17,29.87,29.87,0,0,0,14-3.95c3.2-2,5.62-4.49,6.45-8.25.67,5.43-2,9.08-6.45,11.7-5.74,3.41-12.07,4.36-18.64,3.86A27.52,27.52,0,0,1,8.79,44.18C6.11,42.35,4,40.06,3.36,36.75A15,15,0,0,1,3.26,33.08Z"/><path class="e" d="M19.29,31a4.33,4.33,0,0,1-.76,2.51,1.89,1.89,0,0,1-3.27.2,5,5,0,0,1,0-5.71,1.89,1.89,0,0,1,3.14,0A4.45,4.45,0,0,1,19.29,31Z"/><path class="e" d="M36.34,30.87a4.37,4.37,0,0,1-.78,2.65,1.89,1.89,0,0,1-3.13.3,4.94,4.94,0,0,1-.13-5.9,1.89,1.89,0,0,1,3.07,0A4.4,4.4,0,0,1,36.34,30.87Z"/></svg>