<svg id="Layer_1" data-name="Layer 1" xmlns="http://www.w3.org/2000/svg" viewBox="0 0 200.98 79.93"><defs><style>.cls-1{fill:#fff;}</style></defs><path class="cls-1" d="M84.56,3.26l0,11.14v4.39c.2.07.23-.08.3-.16,2.8-3,6.31-3.72,10.15-2.81s5.79,3.5,6.76,7.07a14.58,14.58,0,0,1,.48,3.71c0,6.06,0,12.12,0,18.18,0,.4-.1.53-.53.53q-4.62,0-9.25,0c-.47,0-.55-.14-.55-.57,0-5,0-10.05,0-15.08a7.51,7.51,0,0,0-.3-2.35A3.09,3.09,0,0,0,88.9,25a3.42,3.42,0,0,0-3.51,1.55,5.74,5.74,0,0,0-.81,3.19q0,7.44,0,14.89c0,.59-.16.71-.72.71-3,0-6.05,0-9.07,0-.42,0-.53-.11-.53-.53q0-20.64,0-41.29c0-.08,0-.16,0-.23Z"/><path class="cls-1" d="M196.75,3.49c-.25.12-.25.39-.33.59Q191.25,16.55,186.09,29a.89.89,0,0,1-1,.68c-3.6,0-7.2,0-10.8,0-.75,0-.75,0-.45-.71l10.4-25.08a1.34,1.34,0,0,0,.2-.61h11.87C196.48,3.26,196.81,3.07,196.75,3.49Z"/><path class="cls-1" d="M60.88,42.64c-3.5,4.14-9.78,4.14-13.89,2a14.16,14.16,0,0,1-7.46-10c-1.18-5.45-.14-10.47,3.65-14.67a12.51,12.51,0,0,1,12.9-4,8.61,8.61,0,0,1,4.54,2.7,1.93,1.93,0,0,0,.26.22c0-.8,0-1.5,0-2.21,0-.33.08-.44.43-.44q4.55,0,9.07,0c.38,0,.46.12.46.48q0,14.11,0,28.23c0,.33-.08.45-.43.45q-4.56,0-9.13,0c-.31,0-.41-.11-.4-.41C60.89,44.19,60.88,43.48,60.88,42.64ZM49.06,30.74a6,6,0,1,0,6-6A5.92,5.92,0,0,0,49.06,30.74Z"/><path class="cls-1" d="M5.86,16.15h.46c3.36,0,6.72,0,10.09,0a.7.7,0,0,1,.77.53q3.06,7.88,6.15,15.74l.29.71c.22-.15.23-.37.3-.54,2.08-5.26,4.17-10.52,6.23-15.79a.87.87,0,0,1,1-.65c3.18,0,6.36,0,9.54,0,.46,0,.65,0,.42.56Q33,36.17,24.92,55.63a.66.66,0,0,1-.74.49c-3.26,0-6.52,0-9.78,0-.57,0-.61-.12-.4-.61,1.35-3.14,2.67-6.29,4-9.42A1.26,1.26,0,0,0,18,45q-6-14.08-12-28.17A1.11,1.11,0,0,1,5.86,16.15Z"/><path class="cls-1" d="M119.84,15.46c7.16,0,13,4.09,15,10.43,3.09,9.93-3.43,19.92-14.46,20.14-5.63.11-10.3-2-13.47-6.72-5.75-8.63-1.66-22,10.79-23.69C118.47,15.51,119.24,15.49,119.84,15.46ZM120,24.9a5.86,5.86,0,1,0,5.83,5.88A5.73,5.73,0,0,0,120,24.9Z"/><path class="cls-1" d="M137.34,31.09A15.2,15.2,0,0,1,153.5,15.48c5.54.24,10,2.49,12.9,7.32,5.32,8.89.78,21.77-11.55,23.12-5.67.62-10.54-1.1-14.23-5.58A14.61,14.61,0,0,1,137.34,31.09ZM153,24.9a5.86,5.86,0,1,0,5.82,5.88A5.73,5.73,0,0,0,153,24.9Z"/><path class="cls-1" d="M127.76,57.8c0-.52,0-.86,0-1.19s.14-.53.54-.52h4.89c.41,0,.55.11.54.53q0,7.74,0,15.48c0,.42-.13.53-.54.53q-2.47,0-4.95,0c-.41,0-.52-.13-.49-.51s0-.7,0-1.19a5.66,5.66,0,0,1-3.45,2,7.18,7.18,0,0,1-7.51-3.16,9.83,9.83,0,0,1,.59-11.6A7.3,7.3,0,0,1,125.24,56a6.63,6.63,0,0,1,1.33.67A7,7,0,0,1,127.76,57.8Zm.15,6.53A3.3,3.3,0,0,0,124.49,61a3.33,3.33,0,1,0,3.42,3.29Z"/><path class="cls-1" d="M103.29,57.61c.3-.23.65-.48,1-.75a5.63,5.63,0,0,1,9,3.14,8.91,8.91,0,0,1,.25,2.12c0,3.3,0,6.59,0,9.89,0,.5-.13.63-.63.62-1.63,0-3.26,0-4.89,0-.44,0-.57-.1-.57-.56,0-2.76,0-5.52,0-8.28a4.2,4.2,0,0,0-.13-1.17,1.84,1.84,0,0,0-1.73-1.47,1.93,1.93,0,0,0-2.05,1.22,3.56,3.56,0,0,0-.28,1.51c0,2.72,0,5.44,0,8.16,0,.47-.12.6-.59.59-1.65,0-3.3,0-4.95,0-.4,0-.55-.09-.55-.52,0-5.16,0-10.32,0-15.48,0-.41.11-.55.54-.55,1.69,0,3.38,0,5.07,0,.34,0,.51.09.48.47S103.29,57.35,103.29,57.61Z"/><path class="cls-1" d="M142.3,57.74a5.83,5.83,0,0,1,3-1.93A5.58,5.58,0,0,1,152.47,61c.05.55.08,1.1.08,1.66,0,3.16,0,6.31,0,9.47,0,.41-.11.55-.53.54-1.67,0-3.34,0-5,0-.48,0-.55-.17-.55-.58,0-2.74,0-5.48,0-8.22a4.76,4.76,0,0,0-.11-1.13,1.87,1.87,0,0,0-1.67-1.54,2,2,0,0,0-2.15,1.24A3.82,3.82,0,0,0,142.3,64c0,2.68,0,5.36,0,8,0,.5-.14.63-.63.62-1.65,0-3.3,0-5,0-.39,0-.51-.11-.51-.5q0-7.77,0-15.55c0-.42.16-.49.52-.49h5.07c.41,0,.52.14.5.52S142.3,57.36,142.3,57.74Z"/><path class="cls-1" d="M179.72,65.9c-1.73,0-3.46,0-5.19,0-.48,0-.53.18-.42.57a3,3,0,0,0,3.1,1.93,3.06,3.06,0,0,0,2.26-1,.51.51,0,0,1,.67-.15c1.44.56,2.89,1.13,4.34,1.66.41.15.35.3.16.59a7.8,7.8,0,0,1-4.28,3.16,11,11,0,0,1-6,.18,7.7,7.7,0,0,1-6.06-6.46A8.84,8.84,0,0,1,172.15,57c4.09-2.54,9.69-1.35,12,2.58a10.09,10.09,0,0,1,1.29,5.84c0,.39-.16.54-.57.53C183.18,65.89,181.45,65.9,179.72,65.9Zm-2.9-3.44c.77,0,1.55,0,2.32,0,.44,0,.52-.15.39-.53a2.47,2.47,0,0,0-1.93-1.66A2.86,2.86,0,0,0,174.14,62c-.11.36,0,.51.36.5C175.27,62.44,176,62.46,176.82,62.46Z"/><path class="cls-1" d="M82.52,66.82c0,1.74,0,3.49,0,5.24,0,.43-.09.58-.56.57q-2.48,0-5,0c-.46,0-.56-.14-.55-.57,0-3.5,0-7,0-10.48,0-.5-.13-.71-.63-.62h-.12c-1.46,0-1.46,0-1.46-1.5,0-.89,0-1.79,0-2.68,0-.6.18-.76.74-.69.33,0,.67,0,1,0s.48-.12.47-.48a10,10,0,0,1,.35-2.71,6.6,6.6,0,0,1,6.31-4.84,8.67,8.67,0,0,1,3.24.35c.3.11.45.24.45.59,0,1.37,0,2.74,0,4.11,0,.35,0,.46-.43.33a3.58,3.58,0,0,0-2-.17,2.26,2.26,0,0,0-1.83,2.49c0,.33.21.32.44.32,1,0,2.07,0,3.1,0,.42,0,.55.13.54.54q0,1.93,0,3.87c0,.37-.12.48-.48.47-1,0-2.07,0-3.1,0-.39,0-.5.11-.5.51C82.53,63.24,82.52,65,82.52,66.82Z"/><path class="cls-1" d="M167,66.67c0,1.83,0,3.52,0,5.2,0,.28-.17.37-.38.47-4.57,2-11.77,0-12.39-7-.42-4.76,2.21-8.46,6.69-9.45a9.56,9.56,0,0,1,5.57.4A.67.67,0,0,1,167,57c0,1.45,0,2.89,0,4.34,0,.46,0,.62-.53.35a4.86,4.86,0,0,0-3.52-.53,3.25,3.25,0,0,0,.35,6.43A5.24,5.24,0,0,0,167,66.67Z"/><path class="cls-1" d="M169.85,39.13a6.89,6.89,0,0,1,6.94-6.92,6.59,6.59,0,0,1,6.69,6.69,6.85,6.85,0,0,1-6.93,6.91A6.59,6.59,0,0,1,169.85,39.13Z"/><path class="cls-1" d="M94.71,64.39c0,2.56,0,5.12,0,7.68,0,.45-.12.57-.56.56q-2.5,0-5,0c-.39,0-.51-.11-.51-.5q0-7.77,0-15.54c0-.39.12-.51.51-.5,1.67,0,3.34,0,5,0,.45,0,.57.13.56.57C94.7,59.23,94.71,61.81,94.71,64.39Z"/><path class="cls-1" d="M95.07,51.26a3.38,3.38,0,0,1-3.4,3.34,3.41,3.41,0,0,1-3.38-3.38,3.39,3.39,0,0,1,6.78,0Z"/></svg>