<svg id="Layer_1" data-name="Layer 1" xmlns="http://www.w3.org/2000/svg" viewBox="0 0 26.36 26.36"><defs><style>.cls-1{fill:#1da0f1;}.cls-2{fill:#fff;}</style></defs><rect class="cls-1" width="26.36" height="26.36"/><path class="cls-2" d="M11.23,16.21a4.12,4.12,0,0,1-.52-.06,2.73,2.73,0,0,1-1.65-1.1,2.92,2.92,0,0,1-.35-.68s0,0,0,0a2.65,2.65,0,0,0,1.12,0h0l-.3-.09a2.68,2.68,0,0,1-1.78-1.91,2.83,2.83,0,0,1-.09-.65s0,0,0,0a2.47,2.47,0,0,0,1,.31H9A2.73,2.73,0,0,1,8.13,8.3l.06.07a7.69,7.69,0,0,0,3.4,2.35,7.8,7.8,0,0,0,1.5.36l.58.05s.06,0,.05,0a2.66,2.66,0,0,1,.55-2.29,2.56,2.56,0,0,1,1.71-1,2.65,2.65,0,0,1,2.34.79.06.06,0,0,0,.07,0A5.53,5.53,0,0,0,20,8l0,0h0a2.6,2.6,0,0,1-.44.84,2.85,2.85,0,0,1-.71.63,4.9,4.9,0,0,0,1.5-.4h0a.35.35,0,0,0-.05.08,5.38,5.38,0,0,1-1.25,1.27.08.08,0,0,0,0,.08,7.48,7.48,0,0,1,0,.82,8.28,8.28,0,0,1-.25,1.49,8.18,8.18,0,0,1-1.59,3.05A7.21,7.21,0,0,1,13.4,18.3a8,8,0,0,1-1.89.25,7.69,7.69,0,0,1-3-.54,6.7,6.7,0,0,1-1.28-.65l0,0a5.72,5.72,0,0,0,2.1-.17A5.73,5.73,0,0,0,11.23,16.21Z"/></svg>