<svg id="Layer_1" data-name="Layer 1" xmlns="http://www.w3.org/2000/svg" viewBox="0 0 26.36 26.36"><defs><style>.cls-1{fill:#fefefe;}.cls-2{fill:#fe0101;}.cls-3{fill:#fefafa;}</style></defs><rect class="cls-1" width="26.36" height="26.36"/><path class="cls-2" d="M12.79,8.11c1.44,0,2.57,0,3.69.07a18.56,18.56,0,0,1,2.11.17,1.85,1.85,0,0,1,1.64,1.53,16.25,16.25,0,0,1,.26,2.78,23.87,23.87,0,0,1-.18,3.48,2,2,0,0,1-1.38,1.78,4.85,4.85,0,0,1-1.14.19c-1.33.1-2.67.12-4,.13s-2.75,0-4.12-.06a14.28,14.28,0,0,1-2-.18,2,2,0,0,1-1.63-1.59,14.38,14.38,0,0,1-.21-2.36A25.25,25.25,0,0,1,6,10.57a6.33,6.33,0,0,1,.12-.76A1.92,1.92,0,0,1,7.7,8.36,14.12,14.12,0,0,1,10,8.17C11.07,8.12,12.09,8.12,12.79,8.11Zm2.64,5.07-3.65-2.25v4.49Z"/><path class="cls-3" d="M15.43,13.18l-3.65,2.24V10.93Z"/></svg>