<svg id="Layer_1" data-name="Layer 1" xmlns="http://www.w3.org/2000/svg" viewBox="0 0 26.36 26.36"><defs><style>.cls-1{fill:#1877f1;}.cls-2{fill:#fff;}</style></defs><rect class="cls-1" width="26.36" height="26.36"/><path class="cls-2" d="M20.78,7.41C20.37,7,17.5,4.77,16.9,4.88s-6.16,1-6.57,1.75S7.8,10,7.8,10L6.15,11.78l1.2,6L10,24.69l1.54,1.67h3.88l.42-1.19,5.65-5.12s2.17-5.51,2.26-6A20.65,20.65,0,0,0,23.34,10C23.22,9.85,20.78,7.41,20.78,7.41Z"/><path class="cls-1" d="M11.68,22.15v4.1c0,.1,0,.12-.11.1a12.1,12.1,0,0,1-9-7,12,12,0,0,1-1-4.21A11.82,11.82,0,0,1,4.66,6.31,11.49,11.49,0,0,1,11.4,2.58,11.79,11.79,0,0,1,21.46,5.32a11.75,11.75,0,0,1,3.85,6.33A12.08,12.08,0,0,1,22.2,22.87a11.89,11.89,0,0,1-6.51,3.46c-.23,0-.23,0-.23-.21V18.06c0-.14,0-.13.13-.13h2.57c.08,0,.11,0,.12-.1.15-1,.3-2,.46-3a2,2,0,0,1,.05-.34c0-.07,0-.09-.08-.09H15.56c-.06,0-.11,0-.11-.08,0-.78,0-1.56,0-2.34a1.66,1.66,0,0,1,.61-1.32,1.79,1.79,0,0,1,1-.38c.46-.05.92,0,1.38,0h.44c.06,0,.08,0,.08-.08V7.39s0-.07-.07-.08a19,19,0,0,0-2-.2,7.12,7.12,0,0,0-1.53,0,4.06,4.06,0,0,0-2.75,1.51,4.41,4.41,0,0,0-.84,2,6.19,6.19,0,0,0-.09,1.14v2.51c0,.09,0,.11-.11.11H8.72c-.08,0-.11,0-.11.11v3.28c0,.09,0,.11.11.11h2.85c.09,0,.11,0,.11.12Z"/></svg>