<svg id="Layer_1" data-name="Layer 1" xmlns="http://www.w3.org/2000/svg" viewBox="0 0 21.13 17.88"><defs><style>.cls-1{fill:#fff;}</style></defs><path class="cls-1" d="M10.51,2.32a6.75,6.75,0,1,0,6.75,6.75A6.76,6.76,0,0,0,10.51,2.32Zm5.8,6.29H13.77a9.86,9.86,0,0,0-1.3-5A5.85,5.85,0,0,1,16.31,8.61Zm-5.8,6.28c-1,0-2.22-2.18-2.32-5.35h4.65C12.73,12.71,11.57,14.89,10.51,14.89ZM8.19,8.61c.1-3.18,1.27-5.36,2.32-5.36s2.22,2.18,2.33,5.36Zm.37-5a10,10,0,0,0-1.31,5H4.72A5.83,5.83,0,0,1,8.56,3.59ZM4.72,9.54H7.25a9.92,9.92,0,0,0,1.31,5A5.81,5.81,0,0,1,4.72,9.54Zm7.75,5a9.82,9.82,0,0,0,1.3-5h2.54A5.82,5.82,0,0,1,12.47,14.55Z"/></svg>