<svg id="Layer_1" data-name="Layer 1" xmlns="http://www.w3.org/2000/svg" viewBox="0 0 26.36 26.36"><defs><style>.cls-1{fill:#039be5;}.cls-2{fill:#feffff;}</style></defs><rect class="cls-1" width="26.36" height="26.36"/><path class="cls-2" d="M16.4,9.8a.46.46,0,0,0-.19.08L12.92,12l-2.21,1.39L9.64,14a.17.17,0,0,1-.17,0l-2.72-.85A1.24,1.24,0,0,1,6.42,13,.48.48,0,0,1,6.31,13a.27.27,0,0,1,0-.33.69.69,0,0,1,.23-.22,2.79,2.79,0,0,1,.53-.24l4.86-1.87L16,8.7,18,8a.37.37,0,0,1,.14,0h.29a.53.53,0,0,1,.41.47,1.78,1.78,0,0,1,0,.61c-.24,1.15-.49,2.29-.73,3.44l-.6,2.82c-.18.83-.36,1.67-.53,2.5a1.8,1.8,0,0,1-.1.33.54.54,0,0,1-.74.33,1.59,1.59,0,0,1-.29-.15L13.2,16.34,13,16.21s-.07,0-.11,0l-.74.71-.72.7a.62.62,0,0,1-.39.16c-.08,0-.08,0-.07-.07a3.87,3.87,0,0,1,0-.48c0-.25,0-.5.05-.75,0-.53.07-1.06.11-1.59,0-.05,0-.07.06-.1l.91-.83,1.73-1.56L15.43,11l1.11-1a.3.3,0,0,0,.08-.08s0-.1,0-.13A.18.18,0,0,0,16.4,9.8Z"/></svg>