<svg id="Layer_1" data-name="Layer 1" xmlns="http://www.w3.org/2000/svg" viewBox="0 0 21.13 16.23"><defs><style>.cls-1{fill:#fff;}</style></defs><path class="cls-1" d="M15,2.76H5.42a2,2,0,0,0-1.95,2v6.71a2,2,0,0,0,1.95,1.95H15A2,2,0,0,0,17,11.42V4.71A2,2,0,0,0,15,2.76Zm0,.93a1.81,1.81,0,0,1,.23,0L11.2,8.32a1.32,1.32,0,0,1-2,0L5.18,3.72a2,2,0,0,1,.24,0Zm1,7.73a1,1,0,0,1-1,1H5.42a1,1,0,0,1-1-1V4.71a1.22,1.22,0,0,1,.07-.38l4.07,4.6a2.2,2.2,0,0,0,1.68.76,2.23,2.23,0,0,0,1.68-.76L16,4.33a1,1,0,0,1,.07.38Z"/></svg>