<svg id="Layer_1" data-name="Layer 1" xmlns="http://www.w3.org/2000/svg" viewBox="0 0 114.449 114.449"><defs><style>.cls-1{fill:#fdfdfd;}.cls-2{fill:#fcfcfc;}.cls-3{fill:#f8f8f8;}</style></defs><rect width="114.449" height="114.449"/><path class="cls-1" d="M37.585,84.611a25.146,25.146,0,0,1,.023-50.291A25.305,25.305,0,0,1,62.735,59.653C62.668,73.125,51.421,84.921,37.585,84.611Z"/><path class="cls-2" d="M65.163,59.364a35.96,35.96,0,0,1,2.621-14.523,16.083,16.083,0,0,1,5.221-7.387c3.334-2.445,7.009-2.316,10.361.917a19.6,19.6,0,0,1,4.539,7.476,37.379,37.379,0,0,1,1.94,7.682,39.754,39.754,0,0,1,.371,7.44,39.746,39.746,0,0,1-1.964,11.257,24.651,24.651,0,0,1-3.081,6.28c-1.582,2.26-3.53,4.062-6.33,4.576a7.508,7.508,0,0,1-6.817-2.415c-2.837-2.781-4.333-6.286-5.406-10.039A36.575,36.575,0,0,1,65.163,59.364Z"/><path class="cls-3" d="M92.619,59.5a81.5,81.5,0,0,1,1.053-14.053,23.32,23.32,0,0,1,1.642-5.573,2.957,2.957,0,0,1,.225-.446c1.089-1.608,2.149-1.555,3.062.168a19.137,19.137,0,0,1,1.767,5.837,86.817,86.817,0,0,1,1.07,15.662,76.077,76.077,0,0,1-1.461,14.512,11.806,11.806,0,0,1-1.329,3.67c-.382.643-.763,1.425-1.546,1.448-.892.026-1.382-.778-1.728-1.508a22.415,22.415,0,0,1-1.713-5.765A81.336,81.336,0,0,1,92.619,59.5Z"/></svg>