<svg id="Layer_1" data-name="Layer 1" xmlns="http://www.w3.org/2000/svg" viewBox="0 0 114.449 114.449"><defs><style>.cls-1{fill:#fe4602;}.cls-2{fill:#fefdfd;}</style></defs><rect class="cls-1" width="114.449" height="114.449"/><path class="cls-2" d="M56.65,90.153c-9.463-.109-18.327-2.26-26.087-7.926-4.465-3.26-7.778-7.4-9.136-12.9a18.08,18.08,0,0,1-.365-5.941,1.117,1.117,0,0,0-.627-1.236,8.9,8.9,0,1,1,9.99-14.657.865.865,0,0,0,1.216.054,43.172,43.172,0,0,1,22.51-7.066c.9-.042,1.195-.381,1.365-1.2q2.034-9.829,4.14-19.644c.366-1.719.962-2.065,2.727-1.691,4.4.931,8.814,1.834,13.209,2.8a1.147,1.147,0,0,0,1.446-.566,6.265,6.265,0,0,1,7.489-2.385,6.376,6.376,0,0,1-1.446,12.278,6.232,6.232,0,0,1-6.961-4.84,1.675,1.675,0,0,0-1.6-1.486q-5.448-1.083-10.868-2.314c-.9-.2-1.138.062-1.313.911Q60.583,30.886,58.7,39.4c-.217.983.207,1.039.955,1.078a45.551,45.551,0,0,1,16.96,4.126A31.579,31.579,0,0,1,81.6,47.442a1.054,1.054,0,0,0,1.52-.013,8.46,8.46,0,0,1,9-1.212,8.374,8.374,0,0,1,5.367,7.328,8.539,8.539,0,0,1-4.267,8.482,1.439,1.439,0,0,0-.866,1.565c.566,6.879-2.332,12.317-7.271,16.8-5.51,5-12.177,7.595-19.379,8.973A45.282,45.282,0,0,1,56.65,90.153ZM77.116,60.8a6.371,6.371,0,1,0-6.4,6.352A6.395,6.395,0,0,0,77.116,60.8Zm-40.811-.092a6.371,6.371,0,0,0,12.74.228,6.371,6.371,0,1,0-12.74-.228ZM56.64,82.394a39.436,39.436,0,0,0,5.4-.467C65.5,81.34,68.808,80.4,71.511,78c.948-.841,1.094-1.857.416-2.6s-1.589-.754-2.535.07a10.9,10.9,0,0,1-3.27,1.939A25.169,25.169,0,0,1,55.322,79c-4.161-.266-8.257-.873-11.6-3.78a1.471,1.471,0,0,0-2.234.226,1.546,1.546,0,0,0,.121,2.257,11.838,11.838,0,0,0,3.649,2.459A29.685,29.685,0,0,0,56.64,82.394Z"/></svg>